<svg width="607" height="445" viewBox="0 0 607 445" fill="none" xmlns="http://www.w3.org/2000/svg">
<rect width="607" height="445" fill="white" fill-opacity="0.5"/>
<path d="M88 69C46.5812 69 13 79.4906 13 92.4375V111.188C13 124.134 46.5812 134.625 88 134.625C129.419 134.625 163 124.134 163 111.188V92.4375C163 79.4906 129.419 69 88 69Z" fill="black"/>
<path d="M88 148.688C46.5812 148.688 13 138.197 13 125.25V153.375C13 166.322 46.5812 176.812 88 176.812C129.419 176.812 163 166.322 163 153.375V125.25C163 138.197 129.419 148.688 88 148.688Z" fill="black"/>
<path d="M88 190.875C46.5812 190.875 13 180.384 13 167.438V195.562C13 208.509 46.5812 219 88 219C129.419 219 163 208.509 163 195.562V167.438C163 180.384 129.419 190.875 88 190.875Z" fill="black"/>
<path d="M108 157.75C108 154.103 109.449 150.606 112.027 148.027C114.606 145.449 118.103 144 121.75 144H204.25C207.897 144 211.394 145.449 213.973 148.027C216.551 150.606 218 154.103 218 157.75V240.25C218 243.897 216.551 247.394 213.973 249.973C211.394 252.551 207.897 254 204.25 254H121.75C118.103 254 114.606 252.551 112.027 249.973C109.449 247.394 108 243.897 108 240.25V157.75ZM211.125 171.5H183.625V192.125H211.125V171.5ZM211.125 199H183.625V219.625H211.125V199ZM211.125 226.5H183.625V247.125H204.25C206.073 247.125 207.822 246.401 209.111 245.111C210.401 243.822 211.125 242.073 211.125 240.25V226.5ZM176.75 247.125V226.5H149.25V247.125H176.75ZM142.375 247.125V226.5H114.875V240.25C114.875 242.073 115.599 243.822 116.889 245.111C118.178 246.401 119.927 247.125 121.75 247.125H142.375ZM114.875 219.625H142.375V199H114.875V219.625ZM114.875 192.125H142.375V171.5H114.875V192.125ZM149.25 171.5V192.125H176.75V171.5H149.25ZM176.75 199H149.25V219.625H176.75V199Z" fill="#5272E3"/>
<path d="M118.266 278H115.922L111.359 270.516V278H109.016V266.625H111.359L115.93 274.125V266.625H118.266V278ZM119.812 273.695C119.812 272.857 119.974 272.109 120.297 271.453C120.62 270.797 121.083 270.289 121.688 269.93C122.297 269.57 123.003 269.391 123.805 269.391C124.945 269.391 125.875 269.74 126.594 270.438C127.318 271.135 127.721 272.083 127.805 273.281L127.82 273.859C127.82 275.156 127.458 276.198 126.734 276.984C126.01 277.766 125.039 278.156 123.82 278.156C122.602 278.156 121.628 277.766 120.898 276.984C120.174 276.203 119.812 275.141 119.812 273.797V273.695ZM122.07 273.859C122.07 274.661 122.221 275.276 122.523 275.703C122.826 276.125 123.258 276.336 123.82 276.336C124.367 276.336 124.794 276.128 125.102 275.711C125.409 275.289 125.562 274.617 125.562 273.695C125.562 272.909 125.409 272.299 125.102 271.867C124.794 271.435 124.362 271.219 123.805 271.219C123.253 271.219 122.826 271.435 122.523 271.867C122.221 272.294 122.07 272.958 122.07 273.859ZM128.859 273.711C128.859 272.393 129.154 271.344 129.742 270.562C130.336 269.781 131.146 269.391 132.172 269.391C132.995 269.391 133.674 269.698 134.211 270.312V266H136.477V278H134.438L134.328 277.102C133.766 277.805 133.042 278.156 132.156 278.156C131.161 278.156 130.362 277.766 129.758 276.984C129.159 276.198 128.859 275.107 128.859 273.711ZM131.117 273.875C131.117 274.667 131.255 275.273 131.531 275.695C131.807 276.117 132.208 276.328 132.734 276.328C133.432 276.328 133.924 276.034 134.211 275.445V272.109C133.93 271.521 133.443 271.227 132.75 271.227C131.661 271.227 131.117 272.109 131.117 273.875ZM142.117 278.156C140.878 278.156 139.867 277.776 139.086 277.016C138.31 276.255 137.922 275.242 137.922 273.977V273.758C137.922 272.909 138.086 272.151 138.414 271.484C138.742 270.812 139.206 270.297 139.805 269.938C140.409 269.573 141.096 269.391 141.867 269.391C143.023 269.391 143.932 269.755 144.594 270.484C145.26 271.214 145.594 272.247 145.594 273.586V274.508H140.211C140.284 275.06 140.503 275.503 140.867 275.836C141.237 276.169 141.703 276.336 142.266 276.336C143.135 276.336 143.815 276.021 144.305 275.391L145.414 276.633C145.076 277.112 144.617 277.487 144.039 277.758C143.461 278.023 142.82 278.156 142.117 278.156ZM141.859 271.219C141.411 271.219 141.047 271.37 140.766 271.672C140.49 271.974 140.312 272.406 140.234 272.969H143.375V272.789C143.365 272.289 143.229 271.904 142.969 271.633C142.708 271.357 142.339 271.219 141.859 271.219ZM157.555 267.469V269.547H159V271.203H157.555V275.422C157.555 275.734 157.615 275.958 157.734 276.094C157.854 276.229 158.083 276.297 158.422 276.297C158.672 276.297 158.893 276.279 159.086 276.242V277.953C158.643 278.089 158.188 278.156 157.719 278.156C156.135 278.156 155.328 277.357 155.297 275.758V271.203H154.062V269.547H155.297V267.469H157.555ZM165.156 278C165.052 277.797 164.977 277.544 164.93 277.242C164.383 277.852 163.672 278.156 162.797 278.156C161.969 278.156 161.281 277.917 160.734 277.438C160.193 276.958 159.922 276.354 159.922 275.625C159.922 274.729 160.253 274.042 160.914 273.562C161.581 273.083 162.542 272.841 163.797 272.836H164.836V272.352C164.836 271.961 164.734 271.648 164.531 271.414C164.333 271.18 164.018 271.062 163.586 271.062C163.206 271.062 162.906 271.154 162.688 271.336C162.474 271.518 162.367 271.768 162.367 272.086H160.109C160.109 271.596 160.26 271.143 160.562 270.727C160.865 270.31 161.292 269.984 161.844 269.75C162.396 269.51 163.016 269.391 163.703 269.391C164.745 269.391 165.57 269.654 166.18 270.18C166.794 270.701 167.102 271.435 167.102 272.383V276.047C167.107 276.849 167.219 277.456 167.438 277.867V278H165.156ZM163.289 276.43C163.622 276.43 163.93 276.357 164.211 276.211C164.492 276.06 164.701 275.859 164.836 275.609V274.156H163.992C162.862 274.156 162.26 274.547 162.188 275.328L162.18 275.461C162.18 275.742 162.279 275.974 162.477 276.156C162.674 276.339 162.945 276.43 163.289 276.43ZM176.453 273.852C176.453 275.206 176.164 276.263 175.586 277.023C175.008 277.779 174.201 278.156 173.164 278.156C172.247 278.156 171.516 277.805 170.969 277.102L170.867 278H168.836V266H171.094V270.305C171.615 269.695 172.299 269.391 173.148 269.391C174.18 269.391 174.987 269.771 175.57 270.531C176.159 271.286 176.453 272.352 176.453 273.727V273.852ZM174.195 273.688C174.195 272.833 174.06 272.211 173.789 271.82C173.518 271.424 173.115 271.227 172.578 271.227C171.859 271.227 171.365 271.521 171.094 272.109V275.445C171.37 276.039 171.87 276.336 172.594 276.336C173.323 276.336 173.802 275.977 174.031 275.258C174.141 274.914 174.195 274.391 174.195 273.688ZM180.234 278H177.969V266H180.234V278ZM185.992 278.156C184.753 278.156 183.742 277.776 182.961 277.016C182.185 276.255 181.797 275.242 181.797 273.977V273.758C181.797 272.909 181.961 272.151 182.289 271.484C182.617 270.812 183.081 270.297 183.68 269.938C184.284 269.573 184.971 269.391 185.742 269.391C186.898 269.391 187.807 269.755 188.469 270.484C189.135 271.214 189.469 272.247 189.469 273.586V274.508H184.086C184.159 275.06 184.378 275.503 184.742 275.836C185.112 276.169 185.578 276.336 186.141 276.336C187.01 276.336 187.69 276.021 188.18 275.391L189.289 276.633C188.951 277.112 188.492 277.487 187.914 277.758C187.336 278.023 186.695 278.156 185.992 278.156ZM185.734 271.219C185.286 271.219 184.922 271.37 184.641 271.672C184.365 271.974 184.188 272.406 184.109 272.969H187.25V272.789C187.24 272.289 187.104 271.904 186.844 271.633C186.583 271.357 186.214 271.219 185.734 271.219Z" fill="#5272E3"/>
<path d="M108 40.75C108 37.1033 109.449 33.6059 112.027 31.0273C114.606 28.4487 118.103 27 121.75 27H204.25C207.897 27 211.394 28.4487 213.973 31.0273C216.551 33.6059 218 37.1033 218 40.75V123.25C218 126.897 216.551 130.394 213.973 132.973C211.394 135.551 207.897 137 204.25 137H121.75C118.103 137 114.606 135.551 112.027 132.973C109.449 130.394 108 126.897 108 123.25V40.75ZM211.125 54.5H183.625V75.125H211.125V54.5ZM211.125 82H183.625V102.625H211.125V82ZM211.125 109.5H183.625V130.125H204.25C206.073 130.125 207.822 129.401 209.111 128.111C210.401 126.822 211.125 125.073 211.125 123.25V109.5ZM176.75 130.125V109.5H149.25V130.125H176.75ZM142.375 130.125V109.5H114.875V123.25C114.875 125.073 115.599 126.822 116.889 128.111C118.178 129.401 119.927 130.125 121.75 130.125H142.375ZM114.875 102.625H142.375V82H114.875V102.625ZM114.875 75.125H142.375V54.5H114.875V75.125ZM149.25 54.5V75.125H176.75V54.5H149.25ZM176.75 82H149.25V102.625H176.75V82Z" fill="#FF6600"/>
<path d="M111.359 10.9922V15H109.016V3.625H113.453C114.307 3.625 115.057 3.78125 115.703 4.09375C116.354 4.40625 116.854 4.85156 117.203 5.42969C117.552 6.0026 117.727 6.65625 117.727 7.39062C117.727 8.50521 117.344 9.38542 116.578 10.0312C115.818 10.6719 114.763 10.9922 113.414 10.9922H111.359ZM111.359 9.09375H113.453C114.073 9.09375 114.544 8.94792 114.867 8.65625C115.195 8.36458 115.359 7.94792 115.359 7.40625C115.359 6.84896 115.195 6.39844 114.867 6.05469C114.539 5.71094 114.086 5.53385 113.508 5.52344H111.359V9.09375ZM123.945 8.66406C123.638 8.6224 123.367 8.60156 123.133 8.60156C122.279 8.60156 121.719 8.89062 121.453 9.46875V15H119.195V6.54688H121.328L121.391 7.55469C121.844 6.77865 122.471 6.39062 123.273 6.39062C123.523 6.39062 123.758 6.42448 123.977 6.49219L123.945 8.66406ZM124.406 10.6953C124.406 9.85677 124.568 9.10938 124.891 8.45312C125.214 7.79688 125.677 7.28906 126.281 6.92969C126.891 6.57031 127.596 6.39062 128.398 6.39062C129.539 6.39062 130.469 6.73958 131.188 7.4375C131.911 8.13542 132.315 9.08333 132.398 10.2812L132.414 10.8594C132.414 12.1562 132.052 13.1979 131.328 13.9844C130.604 14.7656 129.633 15.1562 128.414 15.1562C127.195 15.1562 126.221 14.7656 125.492 13.9844C124.768 13.2031 124.406 12.1406 124.406 10.7969V10.6953ZM126.664 10.8594C126.664 11.6615 126.815 12.276 127.117 12.7031C127.419 13.125 127.852 13.3359 128.414 13.3359C128.961 13.3359 129.388 13.1276 129.695 12.7109C130.003 12.2891 130.156 11.6172 130.156 10.6953C130.156 9.90885 130.003 9.29948 129.695 8.86719C129.388 8.4349 128.956 8.21875 128.398 8.21875C127.846 8.21875 127.419 8.4349 127.117 8.86719C126.815 9.29427 126.664 9.95833 126.664 10.8594ZM137.32 13.3359C137.737 13.3359 138.076 13.2214 138.336 12.9922C138.596 12.763 138.732 12.4583 138.742 12.0781H140.859C140.854 12.651 140.698 13.1771 140.391 13.6562C140.083 14.1302 139.661 14.5 139.125 14.7656C138.594 15.026 138.005 15.1562 137.359 15.1562C136.151 15.1562 135.198 14.7734 134.5 14.0078C133.802 13.237 133.453 12.1745 133.453 10.8203V10.6719C133.453 9.36979 133.799 8.33073 134.492 7.55469C135.185 6.77865 136.135 6.39062 137.344 6.39062C138.401 6.39062 139.247 6.69271 139.883 7.29688C140.523 7.89583 140.849 8.69531 140.859 9.69531H138.742C138.732 9.25781 138.596 8.90365 138.336 8.63281C138.076 8.35677 137.732 8.21875 137.305 8.21875C136.779 8.21875 136.38 8.41146 136.109 8.79688C135.844 9.17708 135.711 9.79688 135.711 10.6562V10.8906C135.711 11.7604 135.844 12.3854 136.109 12.7656C136.375 13.1458 136.779 13.3359 137.32 13.3359ZM146.039 15.1562C144.799 15.1562 143.789 14.776 143.008 14.0156C142.232 13.2552 141.844 12.2422 141.844 10.9766V10.7578C141.844 9.90885 142.008 9.15104 142.336 8.48438C142.664 7.8125 143.128 7.29688 143.727 6.9375C144.331 6.57292 145.018 6.39062 145.789 6.39062C146.945 6.39062 147.854 6.75521 148.516 7.48438C149.182 8.21354 149.516 9.2474 149.516 10.5859V11.5078H144.133C144.206 12.0599 144.424 12.5026 144.789 12.8359C145.159 13.1693 145.625 13.3359 146.188 13.3359C147.057 13.3359 147.737 13.0208 148.227 12.3906L149.336 13.6328C148.997 14.112 148.539 14.487 147.961 14.7578C147.383 15.0234 146.742 15.1562 146.039 15.1562ZM145.781 8.21875C145.333 8.21875 144.969 8.36979 144.688 8.67188C144.411 8.97396 144.234 9.40625 144.156 9.96875H147.297V9.78906C147.286 9.28906 147.151 8.90365 146.891 8.63281C146.63 8.35677 146.26 8.21875 145.781 8.21875ZM155.383 12.6641C155.383 12.388 155.245 12.1719 154.969 12.0156C154.698 11.8542 154.26 11.7109 153.656 11.5859C151.646 11.1641 150.641 10.3099 150.641 9.02344C150.641 8.27344 150.951 7.64844 151.57 7.14844C152.195 6.64323 153.01 6.39062 154.016 6.39062C155.089 6.39062 155.945 6.64323 156.586 7.14844C157.232 7.65365 157.555 8.3099 157.555 9.11719H155.297C155.297 8.79427 155.193 8.52865 154.984 8.32031C154.776 8.10677 154.451 8 154.008 8C153.628 8 153.333 8.08594 153.125 8.25781C152.917 8.42969 152.812 8.64844 152.812 8.91406C152.812 9.16406 152.93 9.36719 153.164 9.52344C153.404 9.67448 153.805 9.80729 154.367 9.92188C154.93 10.0312 155.404 10.1562 155.789 10.2969C156.982 10.7344 157.578 11.4922 157.578 12.5703C157.578 13.3411 157.247 13.9661 156.586 14.4453C155.924 14.9193 155.07 15.1562 154.023 15.1562C153.315 15.1562 152.685 15.0312 152.133 14.7812C151.586 14.526 151.156 14.1797 150.844 13.7422C150.531 13.2995 150.375 12.8229 150.375 12.3125H152.516C152.536 12.7135 152.685 13.0208 152.961 13.2344C153.237 13.4479 153.607 13.5547 154.07 13.5547C154.503 13.5547 154.828 13.474 155.047 13.3125C155.271 13.1458 155.383 12.9297 155.383 12.6641ZM163.617 12.6641C163.617 12.388 163.479 12.1719 163.203 12.0156C162.932 11.8542 162.495 11.7109 161.891 11.5859C159.88 11.1641 158.875 10.3099 158.875 9.02344C158.875 8.27344 159.185 7.64844 159.805 7.14844C160.43 6.64323 161.245 6.39062 162.25 6.39062C163.323 6.39062 164.18 6.64323 164.82 7.14844C165.466 7.65365 165.789 8.3099 165.789 9.11719H163.531C163.531 8.79427 163.427 8.52865 163.219 8.32031C163.01 8.10677 162.685 8 162.242 8C161.862 8 161.568 8.08594 161.359 8.25781C161.151 8.42969 161.047 8.64844 161.047 8.91406C161.047 9.16406 161.164 9.36719 161.398 9.52344C161.638 9.67448 162.039 9.80729 162.602 9.92188C163.164 10.0312 163.638 10.1562 164.023 10.2969C165.216 10.7344 165.812 11.4922 165.812 12.5703C165.812 13.3411 165.482 13.9661 164.82 14.4453C164.159 14.9193 163.305 15.1562 162.258 15.1562C161.549 15.1562 160.919 15.0312 160.367 14.7812C159.82 14.526 159.391 14.1797 159.078 13.7422C158.766 13.2995 158.609 12.8229 158.609 12.3125H160.75C160.771 12.7135 160.919 13.0208 161.195 13.2344C161.471 13.4479 161.841 13.5547 162.305 13.5547C162.737 13.5547 163.062 13.474 163.281 13.3125C163.505 13.1458 163.617 12.9297 163.617 12.6641ZM177.945 4.46875V6.54688H179.391V8.20312H177.945V12.4219C177.945 12.7344 178.005 12.9583 178.125 13.0938C178.245 13.2292 178.474 13.2969 178.812 13.2969C179.062 13.2969 179.284 13.2786 179.477 13.2422V14.9531C179.034 15.0885 178.578 15.1562 178.109 15.1562C176.526 15.1562 175.719 14.3568 175.688 12.7578V8.20312H174.453V6.54688H175.688V4.46875H177.945ZM185.547 15C185.443 14.7969 185.367 14.5443 185.32 14.2422C184.773 14.8516 184.062 15.1562 183.188 15.1562C182.359 15.1562 181.672 14.9167 181.125 14.4375C180.583 13.9583 180.312 13.3542 180.312 12.625C180.312 11.7292 180.643 11.0417 181.305 10.5625C181.971 10.0833 182.932 9.84115 184.188 9.83594H185.227V9.35156C185.227 8.96094 185.125 8.64844 184.922 8.41406C184.724 8.17969 184.409 8.0625 183.977 8.0625C183.596 8.0625 183.297 8.15365 183.078 8.33594C182.865 8.51823 182.758 8.76823 182.758 9.08594H180.5C180.5 8.59635 180.651 8.14323 180.953 7.72656C181.255 7.3099 181.682 6.98438 182.234 6.75C182.786 6.51042 183.406 6.39062 184.094 6.39062C185.135 6.39062 185.961 6.65365 186.57 7.17969C187.185 7.70052 187.492 8.4349 187.492 9.38281V13.0469C187.497 13.849 187.609 14.4557 187.828 14.8672V15H185.547ZM183.68 13.4297C184.013 13.4297 184.32 13.3568 184.602 13.2109C184.883 13.0599 185.091 12.8594 185.227 12.6094V11.1562H184.383C183.253 11.1562 182.651 11.5469 182.578 12.3281L182.57 12.4609C182.57 12.7422 182.669 12.974 182.867 13.1562C183.065 13.3385 183.336 13.4297 183.68 13.4297ZM196.844 10.8516C196.844 12.2057 196.555 13.263 195.977 14.0234C195.398 14.7786 194.591 15.1562 193.555 15.1562C192.638 15.1562 191.906 14.8047 191.359 14.1016L191.258 15H189.227V3H191.484V7.30469C192.005 6.69531 192.69 6.39062 193.539 6.39062C194.57 6.39062 195.378 6.77083 195.961 7.53125C196.549 8.28646 196.844 9.35156 196.844 10.7266V10.8516ZM194.586 10.6875C194.586 9.83333 194.451 9.21094 194.18 8.82031C193.909 8.42448 193.505 8.22656 192.969 8.22656C192.25 8.22656 191.755 8.52083 191.484 9.10938V12.4453C191.76 13.0391 192.26 13.3359 192.984 13.3359C193.714 13.3359 194.193 12.9766 194.422 12.2578C194.531 11.9141 194.586 11.3906 194.586 10.6875ZM200.625 15H198.359V3H200.625V15ZM206.383 15.1562C205.143 15.1562 204.133 14.776 203.352 14.0156C202.576 13.2552 202.188 12.2422 202.188 10.9766V10.7578C202.188 9.90885 202.352 9.15104 202.68 8.48438C203.008 7.8125 203.471 7.29688 204.07 6.9375C204.674 6.57292 205.362 6.39062 206.133 6.39062C207.289 6.39062 208.198 6.75521 208.859 7.48438C209.526 8.21354 209.859 9.2474 209.859 10.5859V11.5078H204.477C204.549 12.0599 204.768 12.5026 205.133 12.8359C205.503 13.1693 205.969 13.3359 206.531 13.3359C207.401 13.3359 208.081 13.0208 208.57 12.3906L209.68 13.6328C209.341 14.112 208.883 14.487 208.305 14.7578C207.727 15.0234 207.086 15.1562 206.383 15.1562ZM206.125 8.21875C205.677 8.21875 205.312 8.36979 205.031 8.67188C204.755 8.97396 204.578 9.40625 204.5 9.96875H207.641V9.78906C207.63 9.28906 207.495 8.90365 207.234 8.63281C206.974 8.35677 206.604 8.21875 206.125 8.21875Z" fill="#FF6600"/>
<g clip-path="url(#clip0)">
<path d="M428.591 422.906C433.079 417.507 436.2 411.105 437.691 404.244C439.181 397.383 438.998 390.264 437.155 383.489C435.313 376.714 431.865 370.482 427.105 365.321C422.345 360.16 416.412 356.221 409.807 353.838C403.203 351.455 396.121 350.698 389.162 351.63C382.203 352.563 375.571 355.158 369.827 359.195C364.083 363.233 359.396 368.595 356.162 374.827C352.929 381.059 351.244 387.979 351.25 395C351.252 405.207 354.849 415.087 361.409 422.906L361.347 422.959C361.566 423.222 361.816 423.447 362.041 423.706C362.322 424.028 362.625 424.331 362.916 424.644C363.791 425.594 364.691 426.506 365.634 427.362C365.922 427.625 366.219 427.869 366.509 428.119C367.509 428.981 368.538 429.8 369.603 430.562C369.741 430.656 369.866 430.778 370.003 430.875V430.837C377.322 435.988 386.053 438.752 395.003 438.752C403.953 438.752 412.684 435.988 420.003 430.837V430.875C420.141 430.778 420.262 430.656 420.403 430.562C421.466 429.797 422.497 428.981 423.497 428.119C423.787 427.869 424.084 427.622 424.372 427.362C425.316 426.503 426.216 425.594 427.091 424.644C427.381 424.331 427.681 424.028 427.966 423.706C428.187 423.447 428.441 423.222 428.659 422.956L428.591 422.906ZM395 370C397.781 370 400.5 370.825 402.813 372.37C405.125 373.915 406.928 376.111 407.992 378.681C409.056 381.251 409.335 384.078 408.792 386.806C408.25 389.534 406.91 392.039 404.944 394.006C402.977 395.973 400.471 397.312 397.743 397.855C395.016 398.397 392.188 398.119 389.619 397.055C387.049 395.99 384.853 394.188 383.307 391.875C381.762 389.563 380.938 386.844 380.938 384.062C380.938 380.333 382.419 376.756 385.056 374.119C387.694 371.482 391.27 370 395 370V370ZM370.022 422.906C370.076 418.803 371.744 414.886 374.664 412.003C377.584 409.12 381.521 407.502 385.625 407.5H404.375C408.479 407.502 412.416 409.12 415.336 412.003C418.256 414.886 419.924 418.803 419.978 422.906C413.125 429.082 404.226 432.5 395 432.5C385.774 432.5 376.875 429.082 370.022 422.906V422.906Z" fill="black"/>
<path d="M57.7362 204.523C56.9207 204.669 56.3777 205.448 56.5234 206.264L58.8975 219.553C59.0432 220.369 59.8224 220.912 60.6379 220.766C61.4534 220.621 61.9964 219.841 61.8507 219.026L59.7404 207.213L71.5534 205.103C72.3689 204.957 72.9119 204.178 72.7662 203.362C72.6205 202.547 71.8413 202.004 71.0258 202.149L57.7362 204.523ZM345.858 404.769L58.8576 204.769L57.1424 207.231L344.142 407.231L345.858 404.769Z" fill="black"/>
</g>
<rect x="326" width="281" height="290" fill="#F8A0A0" fill-opacity="0.3"/>
<path d="M402.802 126.846C401.19 125.533 398.097 124.875 395 124.875C391.904 124.875 388.812 125.532 387.2 126.845V146.917H402.803V126.846H402.802Z" fill="black"/>
<path d="M419.735 148.851L420.234 149.117C419.741 139.479 415.365 131.74 404.316 129.066L404.317 145.306C410.732 145.94 416.166 147.202 419.735 148.851" fill="black"/>
<path d="M385.684 145.306L385.686 129.066C374.635 131.74 370.259 139.479 369.766 149.118L370.265 148.852C373.835 147.202 379.269 145.94 385.684 145.306" fill="black"/>
<path d="M419.375 156.268V153H423.125C423.125 151.739 422.157 150.547 420.469 149.474C418.272 148.936 411.913 147.482 404.317 146.724V148.334H385.684V146.724C378.086 147.482 371.723 148.935 369.53 149.476C367.842 150.547 366.875 151.739 366.875 153H370.625V156.268C369.215 156.931 367.812 158.428 367.812 161.437C367.812 165.17 369.971 166.599 371.623 166.962C372.754 174.827 389.454 181.125 395 181.125C400.546 181.125 417.246 174.827 418.378 166.962C420.029 166.599 422.188 165.17 422.188 161.437C422.188 158.428 420.785 156.931 419.375 156.268ZM417.5 165.187H416.562V166.125C416.562 172.722 400.708 179.25 395 179.25C389.292 179.25 373.438 172.722 373.438 166.125V165.187H372.5C372.386 165.187 369.688 165.144 369.688 161.437C369.688 157.843 372.22 157.693 372.5 157.687H373.438V153H416.562V157.687H417.5C417.614 157.687 420.312 157.731 420.312 161.437C420.312 165.032 417.78 165.182 417.5 165.187Z" fill="black"/>
<path d="M388.438 159.148C388.438 158.631 388.332 158.142 388.161 157.684C389.127 158.384 389.904 159.326 390.312 160.553C390.312 153.054 377.188 153.054 377.188 159.617C377.799 158.087 379.214 157.067 380.903 156.568C380.321 157.302 380.003 158.211 380 159.148C380 160.267 380.444 161.34 381.236 162.131C382.027 162.922 383.1 163.367 384.219 163.367C385.338 163.367 386.411 162.922 387.202 162.131C387.993 161.34 388.438 160.267 388.438 159.148" fill="black"/>
<path d="M399.688 160.553C400.096 159.326 400.873 158.384 401.839 157.684C401.66 158.151 401.566 158.647 401.562 159.148C401.562 160.267 402.007 161.34 402.798 162.131C403.589 162.922 404.662 163.367 405.781 163.367C406.9 163.367 407.973 162.922 408.764 162.131C409.556 161.34 410 160.267 410 159.148C409.997 158.211 409.679 157.303 409.097 156.568C410.786 157.067 412.201 158.087 412.812 159.617C412.812 153.054 399.688 153.054 399.688 160.553Z" fill="black"/>
<path d="M402.594 169.601H387.407C386.563 169.601 386.563 170.405 386.563 170.405C386.563 173.62 390.782 175.226 395.001 175.226C399.22 175.226 403.438 173.62 403.438 170.405C403.437 170.405 403.437 169.601 402.594 169.601Z" fill="black"/>
<path d="M402.802 217.846C401.19 216.533 398.097 215.875 395 215.875C391.904 215.875 388.812 216.532 387.2 217.845V237.917H402.803V217.846H402.802Z" fill="black"/>
<path d="M419.735 239.851L420.234 240.117C419.741 230.479 415.365 222.74 404.316 220.066L404.317 236.306C410.732 236.94 416.166 238.202 419.735 239.851" fill="black"/>
<path d="M385.684 236.306L385.686 220.066C374.635 222.74 370.259 230.479 369.766 240.118L370.265 239.852C373.835 238.202 379.269 236.94 385.684 236.306" fill="black"/>
<path d="M419.375 247.268V244H423.125C423.125 242.739 422.157 241.547 420.469 240.474C418.272 239.936 411.913 238.482 404.317 237.724V239.334H385.684V237.724C378.086 238.482 371.723 239.935 369.53 240.476C367.842 241.547 366.875 242.739 366.875 244H370.625V247.268C369.215 247.931 367.812 249.428 367.812 252.437C367.812 256.17 369.971 257.599 371.623 257.962C372.754 265.827 389.454 272.125 395 272.125C400.546 272.125 417.246 265.827 418.378 257.962C420.029 257.599 422.188 256.17 422.188 252.437C422.188 249.428 420.785 247.931 419.375 247.268ZM417.5 256.187H416.562V257.125C416.562 263.722 400.708 270.25 395 270.25C389.292 270.25 373.438 263.722 373.438 257.125V256.187H372.5C372.386 256.187 369.688 256.144 369.688 252.437C369.688 248.843 372.22 248.693 372.5 248.687H373.438V244H416.562V248.687H417.5C417.614 248.687 420.312 248.731 420.312 252.437C420.312 256.032 417.78 256.182 417.5 256.187Z" fill="black"/>
<path d="M388.438 250.148C388.438 249.631 388.332 249.142 388.161 248.684C389.127 249.384 389.904 250.326 390.312 251.553C390.312 244.054 377.188 244.054 377.188 250.617C377.799 249.087 379.214 248.067 380.903 247.568C380.321 248.302 380.003 249.211 380 250.148C380 251.267 380.444 252.34 381.236 253.131C382.027 253.922 383.1 254.367 384.219 254.367C385.338 254.367 386.411 253.922 387.202 253.131C387.993 252.34 388.438 251.267 388.438 250.148" fill="black"/>
<path d="M399.688 251.553C400.096 250.326 400.873 249.384 401.839 248.684C401.66 249.151 401.566 249.647 401.562 250.148C401.562 251.267 402.007 252.34 402.798 253.131C403.589 253.922 404.662 254.367 405.781 254.367C406.9 254.367 407.973 253.922 408.764 253.131C409.556 252.34 410 251.267 410 250.148C409.997 249.211 409.679 248.303 409.097 247.568C410.786 248.067 412.201 249.087 412.812 250.617C412.812 244.054 399.688 244.054 399.688 251.553Z" fill="black"/>
<path d="M402.594 260.601H387.407C386.563 260.601 386.563 261.405 386.563 261.405C386.563 264.62 390.782 266.226 395.001 266.226C399.22 266.226 403.438 264.62 403.438 261.405C403.437 261.405 403.437 260.601 402.594 260.601Z" fill="black"/>
<path d="M395 22.1875C376.879 22.1875 362.187 36.8787 362.187 55C362.187 73.1213 376.879 87.8125 395 87.8125C413.121 87.8125 427.812 73.1213 427.812 55C427.812 36.8787 413.121 22.1875 395 22.1875ZM414.8 32.3856C411.684 31.1411 408.282 30.7944 404.979 31.3848C404.21 31.5325 404.769 33.8677 405.404 33.743C409.962 32.9248 414.652 34.1805 418.19 37.1697C418.368 37.325 418.703 37.1861 419.026 36.9269C420.94 39.4671 422.439 42.295 423.467 45.305C420.955 41.28 416.5 38.5938 411.406 38.5938C406.448 38.5938 402.086 41.1345 399.541 44.9834C396.601 43.7059 393.192 43.823 390.462 44.9911C387.918 41.1378 383.556 38.5938 378.594 38.5938C373.5 38.5938 369.045 41.2811 366.534 45.3061C367.577 42.2531 369.104 39.388 371.058 36.8208C371.353 37.0362 371.646 37.1478 371.808 37.0056C373.557 35.5297 375.609 34.4574 377.82 33.8651C380.03 33.2728 382.344 33.1751 384.596 33.5789C385.231 33.7025 385.791 31.3684 385.022 31.2208C381.839 30.6529 378.562 30.9552 375.537 32.0958C380.788 27.6267 387.582 24.9219 395 24.9219C402.577 24.9219 409.505 27.7448 414.8 32.3856ZM422.344 52.8125C422.344 58.8511 417.445 63.75 411.406 63.75C405.368 63.75 400.469 58.8511 400.469 52.8125C400.469 46.7706 405.368 41.875 411.406 41.875C417.445 41.875 422.344 46.7706 422.344 52.8125ZM389.532 52.8125C389.532 58.8533 384.633 63.75 378.594 63.75C372.554 63.75 367.656 58.8533 367.656 52.8125C367.656 46.7706 372.553 41.875 378.594 41.875C384.635 41.875 389.532 46.7706 389.532 52.8125V52.8125ZM395 85.0781C379.072 85.0781 366.004 72.6323 364.992 56.9556C366.767 62.7864 372.183 67.0312 378.594 67.0312C386.447 67.0312 392.812 60.6656 392.812 52.8125C392.812 51.4169 392.604 50.0716 392.228 48.7973C393.902 48.3205 396.1 48.3227 397.772 48.7984C397.385 50.1016 397.189 51.4534 397.187 52.8125C397.187 60.6656 403.553 67.0312 411.406 67.0312C417.817 67.0312 423.233 62.7864 425.008 56.9556C423.996 72.6323 410.928 85.0781 395 85.0781Z" fill="black"/>
<path d="M381.875 58.8281C384.291 58.8281 386.25 56.3797 386.25 53.3594C386.25 50.3391 384.291 47.8906 381.875 47.8906C379.459 47.8906 377.5 50.3391 377.5 53.3594C377.5 56.3797 379.459 58.8281 381.875 58.8281Z" fill="black"/>
<path d="M408.125 58.8281C410.541 58.8281 412.5 56.3797 412.5 53.3594C412.5 50.3391 410.541 47.8906 408.125 47.8906C405.709 47.8906 403.75 50.3391 403.75 53.3594C403.75 56.3797 405.709 58.8281 408.125 58.8281Z" fill="black"/>
<path d="M405.286 69.3828C401.76 71.8645 396.15 73.5763 390.345 72.0439C388.791 71.6316 387.572 75.6642 389.232 76.1269C395.539 77.8222 402.41 76.5961 407.749 72.8303C409.067 71.8809 406.596 68.4258 405.286 69.3828" fill="black"/>
<path d="M566.583 42.5C565.764 42.4896 564.95 42.6414 564.189 42.9468C563.428 43.2521 562.735 43.7049 562.15 44.2792C560.979 45.4718 560.326 47.0786 560.333 48.75C560.33 49.5634 560.489 50.3693 560.801 51.1205C561.113 51.8717 561.572 52.5532 562.15 53.125C563.321 54.3126 564.916 54.9869 566.583 55C567.405 54.9937 568.218 54.8247 568.975 54.5029C569.731 54.1811 570.417 53.7128 570.992 53.125C571.574 52.5544 572.036 51.8738 572.352 51.1226C572.668 50.3715 572.832 49.565 572.833 48.75C572.832 47.0755 572.17 45.469 570.992 44.2792C570.412 43.7049 569.723 43.2519 568.966 42.9464C568.21 42.641 567.399 42.4892 566.583 42.5V42.5Z" fill="black"/>
<path d="M537.417 42.5C535.972 42.5001 534.571 43.0012 533.454 43.918C532.337 44.8347 531.573 46.1104 531.291 47.5277C531.009 48.9449 531.228 50.4161 531.909 51.6904C532.59 52.9647 533.692 53.9635 535.027 54.5164C536.362 55.0693 537.848 55.1422 539.23 54.7226C540.613 54.3031 541.808 53.4171 542.61 52.2156C543.413 51.0141 543.774 49.5714 543.633 48.1333C543.491 46.6953 542.855 45.3509 541.833 44.3292C541.254 43.7486 540.565 43.2882 539.807 42.9744C539.049 42.6605 538.237 42.4993 537.417 42.5Z" fill="black"/>
<path d="M577 13.3333C577.909 16.2611 578.619 19.2471 579.125 22.2708C579.348 24.4423 579.232 26.6353 578.779 28.7708C575.292 25.2032 571.126 22.3685 566.528 20.4332C561.93 18.4979 556.991 17.5009 552.002 17.5009C547.013 17.5009 542.074 18.4979 537.476 20.4332C532.878 22.3685 528.712 25.2032 525.225 28.7708C524.792 26.6319 524.704 24.4377 524.963 22.2708C524.957 19.1759 525.653 16.1199 527 13.3333C522.803 16.3075 519.204 20.0464 516.392 24.3542C515.251 26.8539 514.617 29.5547 514.525 32.3008C514.434 35.0469 514.887 37.784 515.858 40.3542C516.104 40.9999 516.382 41.6327 516.692 42.25L516.742 42.3333C514.69 47.9974 514.033 54.0723 514.827 60.0439C515.621 66.0155 517.841 71.7081 521.301 76.6398C524.76 81.5714 529.357 85.597 534.702 88.3759C540.047 91.1547 545.983 92.6049 552.007 92.6039C558.031 92.6028 563.966 91.1504 569.31 88.3697C574.654 85.589 579.249 81.5618 582.707 76.6289C586.165 71.696 588.384 66.0026 589.175 60.0307C589.967 54.0588 589.308 47.9841 587.254 42.3208L587.296 42.25C587.606 41.6327 587.884 40.9999 588.129 40.3542C590.097 35.1717 589.941 29.4225 587.696 24.3542C584.876 20.0241 581.244 16.2815 577 13.3333V13.3333ZM552 84.1667C546.231 84.1667 540.592 82.4561 535.796 79.2512C530.999 76.0463 527.261 71.4911 525.054 66.1616C522.846 60.8321 522.268 54.9676 523.394 49.3099C524.519 43.6521 527.297 38.4551 531.376 34.376C535.455 30.297 540.652 27.5192 546.31 26.3938C551.968 25.2684 557.832 25.846 563.162 28.0535C568.491 30.2611 573.046 33.9994 576.251 38.7959C579.456 43.5923 581.167 49.2314 581.167 55C581.158 62.7328 578.082 70.1463 572.614 75.6142C567.146 81.0821 559.733 84.1578 552 84.1667V84.1667Z" fill="black"/>
<path d="M531.167 63.3333C533.116 67.1623 536.104 70.3653 539.788 72.5759C543.472 74.7864 547.704 75.9153 552 75.8333C556.296 75.9153 560.528 74.7864 564.212 72.5759C567.896 70.3653 570.884 67.1623 572.833 63.3333H531.167Z" fill="black"/>
<path d="M438.443 78.6073C437.674 78.915 437.3 79.7879 437.607 80.5571L442.621 93.0915C442.929 93.8607 443.802 94.2348 444.571 93.9272C445.34 93.6195 445.714 92.7465 445.406 91.9773L440.95 80.8356L452.092 76.3789C452.861 76.0713 453.235 75.1983 452.927 74.4291C452.619 73.66 451.747 73.2858 450.977 73.5935L438.443 78.6073ZM437.67 157.306C437.287 158.041 437.572 158.947 438.306 159.33L450.275 165.575C451.01 165.958 451.916 165.673 452.299 164.938C452.682 164.204 452.397 163.298 451.663 162.915L441.024 157.364L446.575 146.725C446.958 145.99 446.673 145.084 445.938 144.701C445.204 144.318 444.298 144.603 443.915 145.337L437.67 157.306ZM438.409 81.3787C464.613 92.6089 477.303 102.937 481.967 111.866C484.266 116.267 484.62 120.334 483.687 124.094C482.744 127.893 480.457 131.492 477.285 134.844C470.924 141.569 461.292 147.004 453.136 150.779C449.077 152.658 445.423 154.108 442.784 155.088C441.466 155.578 440.402 155.95 439.671 156.198C439.305 156.323 439.022 156.416 438.832 156.478C438.737 156.509 438.666 156.532 438.618 156.547C438.595 156.555 438.577 156.561 438.566 156.564C438.56 156.566 438.556 156.567 438.553 156.568C438.552 156.569 438.551 156.569 438.55 156.569C438.55 156.569 438.55 156.569 439 158C439.45 159.431 439.451 159.431 439.452 159.43C439.453 159.43 439.455 159.429 439.456 159.429C439.46 159.428 439.466 159.426 439.473 159.424C439.487 159.419 439.507 159.413 439.533 159.404C439.586 159.388 439.663 159.363 439.764 159.33C439.964 159.264 440.259 159.167 440.636 159.039C441.392 158.782 442.482 158.401 443.829 157.9C446.523 156.9 450.251 155.42 454.396 153.502C462.645 149.683 472.701 144.056 479.465 136.906C482.856 133.321 485.491 129.279 486.598 124.816C487.716 120.314 487.249 115.499 484.626 110.477C479.447 100.563 465.887 89.8911 439.591 78.6213L438.409 81.3787Z" fill="black"/>
<path d="M437.731 46.5243C436.916 46.6729 436.376 47.454 436.524 48.269L438.946 61.5501C439.094 62.3651 439.875 62.9054 440.69 62.7568C441.505 62.6082 442.045 61.8271 441.897 61.0121L439.745 49.2067L451.55 47.0545C452.365 46.9059 452.905 46.1247 452.757 45.3098C452.608 44.4948 451.827 43.9545 451.012 44.1031L437.731 46.5243ZM436.585 249.503C436.31 250.285 436.721 251.141 437.503 251.415L450.24 255.889C451.022 256.163 451.878 255.752 452.152 254.971C452.427 254.189 452.016 253.333 451.234 253.058L439.912 249.082L443.889 237.76C444.163 236.978 443.752 236.122 442.971 235.848C442.189 235.573 441.333 235.984 441.058 236.766L436.585 249.503ZM437.147 49.2337C471.16 72.7575 496.393 93.0821 513.063 111.313C529.751 129.563 537.678 145.518 537.497 160.321C537.317 175.078 529.068 189.131 512.345 203.573C495.619 218.017 470.609 232.68 437.351 248.648L438.649 251.352C471.971 235.353 497.272 220.553 514.305 205.843C531.341 191.132 540.301 176.337 540.497 160.358C540.691 144.424 532.161 127.752 515.277 109.289C498.376 90.8058 472.922 70.3289 438.853 46.7663L437.147 49.2337Z" fill="black"/>
<rect x="326.5" y="0.5" width="280" height="289" stroke="#F8A0A0" stroke-opacity="0.3"/>
<path d="M396.061 300.939C395.475 300.354 394.525 300.354 393.939 300.939L384.393 310.485C383.808 311.071 383.808 312.021 384.393 312.607C384.979 313.192 385.929 313.192 386.515 312.607L395 304.121L403.485 312.607C404.071 313.192 405.021 313.192 405.607 312.607C406.192 312.021 406.192 311.071 405.607 310.485L396.061 300.939ZM396.5 346V302H393.5V346H396.5Z" fill="#FF0000"/>
<path d="M416.016 331.758C416.016 331.367 415.867 331.065 415.57 330.852C415.279 330.633 414.766 330.445 414.031 330.289C413.302 330.133 412.721 329.945 412.289 329.727C411.862 329.508 411.544 329.247 411.336 328.945C411.133 328.643 411.031 328.284 411.031 327.867C411.031 327.174 411.323 326.589 411.906 326.109C412.495 325.63 413.245 325.391 414.156 325.391C415.115 325.391 415.891 325.638 416.484 326.133C417.083 326.628 417.383 327.26 417.383 328.031H415.93C415.93 327.635 415.76 327.294 415.422 327.008C415.089 326.721 414.667 326.578 414.156 326.578C413.63 326.578 413.219 326.693 412.922 326.922C412.625 327.151 412.477 327.451 412.477 327.82C412.477 328.169 412.615 328.432 412.891 328.609C413.167 328.786 413.664 328.956 414.383 329.117C415.107 329.279 415.693 329.471 416.141 329.695C416.589 329.919 416.919 330.19 417.133 330.508C417.352 330.82 417.461 331.203 417.461 331.656C417.461 332.411 417.159 333.018 416.555 333.477C415.951 333.93 415.167 334.156 414.203 334.156C413.526 334.156 412.927 334.036 412.406 333.797C411.885 333.557 411.477 333.224 411.18 332.797C410.888 332.365 410.742 331.898 410.742 331.398H412.188C412.214 331.883 412.406 332.268 412.766 332.555C413.13 332.836 413.609 332.977 414.203 332.977C414.75 332.977 415.188 332.867 415.516 332.648C415.849 332.424 416.016 332.128 416.016 331.758ZM421.305 323.5V325.547H422.883V326.664H421.305V331.906C421.305 332.245 421.375 332.5 421.516 332.672C421.656 332.839 421.896 332.922 422.234 332.922C422.401 332.922 422.63 332.891 422.922 332.828V334C422.542 334.104 422.172 334.156 421.812 334.156C421.167 334.156 420.68 333.961 420.352 333.57C420.023 333.18 419.859 332.625 419.859 331.906V326.664H418.32V325.547H419.859V323.5H421.305ZM429.797 334C429.714 333.833 429.646 333.536 429.594 333.109C428.922 333.807 428.12 334.156 427.188 334.156C426.354 334.156 425.669 333.922 425.133 333.453C424.602 332.979 424.336 332.38 424.336 331.656C424.336 330.776 424.669 330.094 425.336 329.609C426.008 329.12 426.951 328.875 428.164 328.875H429.57V328.211C429.57 327.706 429.419 327.305 429.117 327.008C428.815 326.706 428.37 326.555 427.781 326.555C427.266 326.555 426.833 326.685 426.484 326.945C426.135 327.206 425.961 327.521 425.961 327.891H424.508C424.508 327.469 424.656 327.062 424.953 326.672C425.255 326.276 425.661 325.964 426.172 325.734C426.688 325.505 427.253 325.391 427.867 325.391C428.841 325.391 429.604 325.635 430.156 326.125C430.708 326.609 430.995 327.279 431.016 328.133V332.023C431.016 332.799 431.115 333.417 431.312 333.875V334H429.797ZM427.398 332.898C427.852 332.898 428.281 332.781 428.688 332.547C429.094 332.312 429.388 332.008 429.57 331.633V329.898H428.438C426.667 329.898 425.781 330.417 425.781 331.453C425.781 331.906 425.932 332.26 426.234 332.516C426.536 332.771 426.924 332.898 427.398 332.898ZM437.367 326.844C437.148 326.807 436.911 326.789 436.656 326.789C435.708 326.789 435.065 327.193 434.727 328V334H433.281V325.547H434.688L434.711 326.523C435.185 325.768 435.857 325.391 436.727 325.391C437.008 325.391 437.221 325.427 437.367 325.5V326.844ZM441.055 323.5V325.547H442.633V326.664H441.055V331.906C441.055 332.245 441.125 332.5 441.266 332.672C441.406 332.839 441.646 332.922 441.984 332.922C442.151 332.922 442.38 332.891 442.672 332.828V334C442.292 334.104 441.922 334.156 441.562 334.156C440.917 334.156 440.43 333.961 440.102 333.57C439.773 333.18 439.609 332.625 439.609 331.906V326.664H438.07V325.547H439.609V323.5H441.055ZM444.617 334.977H443.375L448.125 322.625H449.359L444.617 334.977ZM455.844 331.758C455.844 331.367 455.695 331.065 455.398 330.852C455.107 330.633 454.594 330.445 453.859 330.289C453.13 330.133 452.549 329.945 452.117 329.727C451.69 329.508 451.372 329.247 451.164 328.945C450.961 328.643 450.859 328.284 450.859 327.867C450.859 327.174 451.151 326.589 451.734 326.109C452.323 325.63 453.073 325.391 453.984 325.391C454.943 325.391 455.719 325.638 456.312 326.133C456.911 326.628 457.211 327.26 457.211 328.031H455.758C455.758 327.635 455.589 327.294 455.25 327.008C454.917 326.721 454.495 326.578 453.984 326.578C453.458 326.578 453.047 326.693 452.75 326.922C452.453 327.151 452.305 327.451 452.305 327.82C452.305 328.169 452.443 328.432 452.719 328.609C452.995 328.786 453.492 328.956 454.211 329.117C454.935 329.279 455.521 329.471 455.969 329.695C456.417 329.919 456.747 330.19 456.961 330.508C457.18 330.82 457.289 331.203 457.289 331.656C457.289 332.411 456.987 333.018 456.383 333.477C455.779 333.93 454.995 334.156 454.031 334.156C453.354 334.156 452.755 334.036 452.234 333.797C451.714 333.557 451.305 333.224 451.008 332.797C450.716 332.365 450.57 331.898 450.57 331.398H452.016C452.042 331.883 452.234 332.268 452.594 332.555C452.958 332.836 453.438 332.977 454.031 332.977C454.578 332.977 455.016 332.867 455.344 332.648C455.677 332.424 455.844 332.128 455.844 331.758ZM461.133 323.5V325.547H462.711V326.664H461.133V331.906C461.133 332.245 461.203 332.5 461.344 332.672C461.484 332.839 461.724 332.922 462.062 332.922C462.229 332.922 462.458 332.891 462.75 332.828V334C462.37 334.104 462 334.156 461.641 334.156C460.995 334.156 460.508 333.961 460.18 333.57C459.852 333.18 459.688 332.625 459.688 331.906V326.664H458.148V325.547H459.688V323.5H461.133ZM463.867 329.695C463.867 328.867 464.029 328.122 464.352 327.461C464.68 326.799 465.133 326.289 465.711 325.93C466.294 325.57 466.958 325.391 467.703 325.391C468.854 325.391 469.784 325.789 470.492 326.586C471.206 327.383 471.562 328.443 471.562 329.766V329.867C471.562 330.69 471.404 331.43 471.086 332.086C470.773 332.737 470.323 333.245 469.734 333.609C469.151 333.974 468.479 334.156 467.719 334.156C466.573 334.156 465.643 333.758 464.93 332.961C464.221 332.164 463.867 331.109 463.867 329.797V329.695ZM465.32 329.867C465.32 330.805 465.536 331.557 465.969 332.125C466.406 332.693 466.99 332.977 467.719 332.977C468.453 332.977 469.036 332.69 469.469 332.117C469.901 331.539 470.117 330.732 470.117 329.695C470.117 328.768 469.896 328.018 469.453 327.445C469.016 326.867 468.432 326.578 467.703 326.578C466.99 326.578 466.414 326.862 465.977 327.43C465.539 327.997 465.32 328.81 465.32 329.867ZM480.516 329.867C480.516 331.154 480.221 332.19 479.633 332.977C479.044 333.763 478.247 334.156 477.242 334.156C476.216 334.156 475.409 333.831 474.82 333.18V337.25H473.375V325.547H474.695L474.766 326.484C475.354 325.755 476.172 325.391 477.219 325.391C478.234 325.391 479.036 325.773 479.625 326.539C480.219 327.305 480.516 328.37 480.516 329.734V329.867ZM479.07 329.703C479.07 328.75 478.867 327.997 478.461 327.445C478.055 326.893 477.497 326.617 476.789 326.617C475.914 326.617 475.258 327.005 474.82 327.781V331.82C475.253 332.591 475.914 332.977 476.805 332.977C477.497 332.977 478.047 332.703 478.453 332.156C478.865 331.604 479.07 330.786 479.07 329.703Z" fill="black"/>
<path d="M224.939 156.939C224.354 157.525 224.354 158.475 224.939 159.061L234.485 168.607C235.071 169.192 236.021 169.192 236.607 168.607C237.192 168.021 237.192 167.071 236.607 166.485L228.121 158L236.607 149.515C237.192 148.929 237.192 147.979 236.607 147.393C236.021 146.808 235.071 146.808 234.485 147.393L224.939 156.939ZM353.061 159.061C353.646 158.475 353.646 157.525 353.061 156.939L343.515 147.393C342.929 146.808 341.979 146.808 341.393 147.393C340.808 147.979 340.808 148.929 341.393 149.515L349.879 158L341.393 166.485C340.808 167.071 340.808 168.021 341.393 168.607C341.979 169.192 342.929 169.192 343.515 168.607L353.061 159.061ZM226 159.5L352 159.5V156.5L226 156.5V159.5Z" fill="black"/>
<path d="M224.939 238.939C224.354 239.525 224.354 240.475 224.939 241.061L234.485 250.607C235.071 251.192 236.021 251.192 236.607 250.607C237.192 250.021 237.192 249.071 236.607 248.485L228.121 240L236.607 231.515C237.192 230.929 237.192 229.979 236.607 229.393C236.021 228.808 235.071 228.808 234.485 229.393L224.939 238.939ZM353.061 241.061C353.646 240.475 353.646 239.525 353.061 238.939L343.515 229.393C342.929 228.808 341.979 228.808 341.393 229.393C340.808 229.979 340.808 230.929 341.393 231.515L349.879 240L341.393 248.485C340.808 249.071 340.808 250.021 341.393 250.607C341.979 251.192 342.929 251.192 343.515 250.607L353.061 241.061ZM226 241.5H352V238.5H226V241.5Z" fill="black"/>
<path d="M224.939 61.9393C224.354 62.5251 224.354 63.4749 224.939 64.0607L234.485 73.6066C235.071 74.1924 236.021 74.1924 236.607 73.6066C237.192 73.0208 237.192 72.0711 236.607 71.4853L228.121 63L236.607 54.5147C237.192 53.9289 237.192 52.9792 236.607 52.3934C236.021 51.8076 235.071 51.8076 234.485 52.3934L224.939 61.9393ZM353.061 64.0607C353.646 63.4749 353.646 62.5251 353.061 61.9393L343.515 52.3934C342.929 51.8076 341.979 51.8076 341.393 52.3934C340.808 52.9792 340.808 53.9289 341.393 54.5147L349.879 63L341.393 71.4853C340.808 72.0711 340.808 73.0208 341.393 73.6066C341.979 74.1924 342.929 74.1924 343.515 73.6066L353.061 64.0607ZM226 64.5H352V61.5H226V64.5Z" fill="black"/>
<path d="M257.688 341.391C257.547 342.594 257.102 343.523 256.352 344.18C255.607 344.831 254.615 345.156 253.375 345.156C252.031 345.156 250.953 344.674 250.141 343.711C249.333 342.747 248.93 341.458 248.93 339.844V338.75C248.93 337.693 249.117 336.763 249.492 335.961C249.872 335.159 250.409 334.544 251.102 334.117C251.794 333.685 252.596 333.469 253.508 333.469C254.716 333.469 255.685 333.807 256.414 334.484C257.143 335.156 257.568 336.089 257.688 337.281H256.18C256.049 336.375 255.766 335.719 255.328 335.312C254.896 334.906 254.289 334.703 253.508 334.703C252.549 334.703 251.797 335.057 251.25 335.766C250.708 336.474 250.438 337.482 250.438 338.789V339.891C250.438 341.125 250.695 342.107 251.211 342.836C251.727 343.565 252.448 343.93 253.375 343.93C254.208 343.93 254.846 343.742 255.289 343.367C255.737 342.987 256.034 342.328 256.18 341.391H257.688ZM263.602 337.844C263.383 337.807 263.146 337.789 262.891 337.789C261.943 337.789 261.299 338.193 260.961 339V345H259.516V336.547H260.922L260.945 337.523C261.419 336.768 262.091 336.391 262.961 336.391C263.242 336.391 263.456 336.427 263.602 336.5V337.844ZM268.289 345.156C267.143 345.156 266.211 344.781 265.492 344.031C264.773 343.276 264.414 342.268 264.414 341.008V340.742C264.414 339.904 264.573 339.156 264.891 338.5C265.214 337.839 265.661 337.323 266.234 336.953C266.812 336.578 267.438 336.391 268.109 336.391C269.208 336.391 270.062 336.753 270.672 337.477C271.281 338.201 271.586 339.237 271.586 340.586V341.188H265.859C265.88 342.021 266.122 342.695 266.586 343.211C267.055 343.721 267.648 343.977 268.367 343.977C268.878 343.977 269.31 343.872 269.664 343.664C270.018 343.456 270.328 343.18 270.594 342.836L271.477 343.523C270.768 344.612 269.706 345.156 268.289 345.156ZM268.109 337.578C267.526 337.578 267.036 337.792 266.641 338.219C266.245 338.641 266 339.234 265.906 340H270.141V339.891C270.099 339.156 269.901 338.589 269.547 338.188C269.193 337.781 268.714 337.578 268.109 337.578ZM278.484 345C278.401 344.833 278.333 344.536 278.281 344.109C277.609 344.807 276.807 345.156 275.875 345.156C275.042 345.156 274.357 344.922 273.82 344.453C273.289 343.979 273.023 343.38 273.023 342.656C273.023 341.776 273.357 341.094 274.023 340.609C274.695 340.12 275.638 339.875 276.852 339.875H278.258V339.211C278.258 338.706 278.107 338.305 277.805 338.008C277.503 337.706 277.057 337.555 276.469 337.555C275.953 337.555 275.521 337.685 275.172 337.945C274.823 338.206 274.648 338.521 274.648 338.891H273.195C273.195 338.469 273.344 338.062 273.641 337.672C273.943 337.276 274.349 336.964 274.859 336.734C275.375 336.505 275.94 336.391 276.555 336.391C277.529 336.391 278.292 336.635 278.844 337.125C279.396 337.609 279.682 338.279 279.703 339.133V343.023C279.703 343.799 279.802 344.417 280 344.875V345H278.484ZM276.086 343.898C276.539 343.898 276.969 343.781 277.375 343.547C277.781 343.312 278.076 343.008 278.258 342.633V340.898H277.125C275.354 340.898 274.469 341.417 274.469 342.453C274.469 342.906 274.62 343.26 274.922 343.516C275.224 343.771 275.612 343.898 276.086 343.898ZM283.93 334.5V336.547H285.508V337.664H283.93V342.906C283.93 343.245 284 343.5 284.141 343.672C284.281 343.839 284.521 343.922 284.859 343.922C285.026 343.922 285.255 343.891 285.547 343.828V345C285.167 345.104 284.797 345.156 284.438 345.156C283.792 345.156 283.305 344.961 282.977 344.57C282.648 344.18 282.484 343.625 282.484 342.906V337.664H280.945V336.547H282.484V334.5H283.93ZM290.711 345.156C289.565 345.156 288.633 344.781 287.914 344.031C287.195 343.276 286.836 342.268 286.836 341.008V340.742C286.836 339.904 286.995 339.156 287.312 338.5C287.635 337.839 288.083 337.323 288.656 336.953C289.234 336.578 289.859 336.391 290.531 336.391C291.63 336.391 292.484 336.753 293.094 337.477C293.703 338.201 294.008 339.237 294.008 340.586V341.188H288.281C288.302 342.021 288.544 342.695 289.008 343.211C289.477 343.721 290.07 343.977 290.789 343.977C291.299 343.977 291.732 343.872 292.086 343.664C292.44 343.456 292.75 343.18 293.016 342.836L293.898 343.523C293.19 344.612 292.128 345.156 290.711 345.156ZM290.531 337.578C289.948 337.578 289.458 337.792 289.062 338.219C288.667 338.641 288.422 339.234 288.328 340H292.562V339.891C292.521 339.156 292.323 338.589 291.969 338.188C291.615 337.781 291.135 337.578 290.531 337.578ZM308.625 345H307.117L301.391 336.234V345H299.883V333.625H301.391L307.133 342.43V333.625H308.625V345ZM310.68 340.695C310.68 339.867 310.841 339.122 311.164 338.461C311.492 337.799 311.945 337.289 312.523 336.93C313.107 336.57 313.771 336.391 314.516 336.391C315.667 336.391 316.596 336.789 317.305 337.586C318.018 338.383 318.375 339.443 318.375 340.766V340.867C318.375 341.69 318.216 342.43 317.898 343.086C317.586 343.737 317.135 344.245 316.547 344.609C315.964 344.974 315.292 345.156 314.531 345.156C313.385 345.156 312.456 344.758 311.742 343.961C311.034 343.164 310.68 342.109 310.68 340.797V340.695ZM312.133 340.867C312.133 341.805 312.349 342.557 312.781 343.125C313.219 343.693 313.802 343.977 314.531 343.977C315.266 343.977 315.849 343.69 316.281 343.117C316.714 342.539 316.93 341.732 316.93 340.695C316.93 339.768 316.708 339.018 316.266 338.445C315.828 337.867 315.245 337.578 314.516 337.578C313.802 337.578 313.227 337.862 312.789 338.43C312.352 338.997 312.133 339.81 312.133 340.867ZM319.836 340.703C319.836 339.406 320.143 338.365 320.758 337.578C321.372 336.786 322.177 336.391 323.172 336.391C324.161 336.391 324.945 336.729 325.523 337.406V333H326.969V345H325.641L325.57 344.094C324.992 344.802 324.188 345.156 323.156 345.156C322.177 345.156 321.378 344.755 320.758 343.953C320.143 343.151 319.836 342.104 319.836 340.812V340.703ZM321.281 340.867C321.281 341.826 321.479 342.576 321.875 343.117C322.271 343.659 322.818 343.93 323.516 343.93C324.432 343.93 325.102 343.518 325.523 342.695V338.812C325.091 338.016 324.427 337.617 323.531 337.617C322.823 337.617 322.271 337.891 321.875 338.438C321.479 338.984 321.281 339.794 321.281 340.867ZM332.727 345.156C331.581 345.156 330.648 344.781 329.93 344.031C329.211 343.276 328.852 342.268 328.852 341.008V340.742C328.852 339.904 329.01 339.156 329.328 338.5C329.651 337.839 330.099 337.323 330.672 336.953C331.25 336.578 331.875 336.391 332.547 336.391C333.646 336.391 334.5 336.753 335.109 337.477C335.719 338.201 336.023 339.237 336.023 340.586V341.188H330.297C330.318 342.021 330.56 342.695 331.023 343.211C331.492 343.721 332.086 343.977 332.805 343.977C333.315 343.977 333.747 343.872 334.102 343.664C334.456 343.456 334.766 343.18 335.031 342.836L335.914 343.523C335.206 344.612 334.143 345.156 332.727 345.156ZM332.547 337.578C331.964 337.578 331.474 337.792 331.078 338.219C330.682 338.641 330.438 339.234 330.344 340H334.578V339.891C334.536 339.156 334.339 338.589 333.984 338.188C333.63 337.781 333.151 337.578 332.547 337.578Z" fill="black"/>
<path d="M208.844 257L203.046 273.321L220.079 270.182L208.844 257ZM209.812 270.531C214.744 298.938 217.593 322.976 234.787 343.586C251.985 364.202 283.332 381.201 344.638 396.456L345.362 393.544C284.203 378.327 253.653 361.517 237.091 341.664C220.524 321.806 217.751 298.717 212.768 270.018L209.812 270.531Z" fill="#5272E3"/>
<path d="M97 91L79.68 91.1313L88.4537 106.065L97 91ZM342.026 407.5C173.945 404.569 68.0191 353.114 25.1448 289.791C3.73644 258.173 -1.982 223.576 8.05773 190.405C18.1072 157.202 44.0035 125.246 86.1656 99.1044L84.5847 96.5548C41.9799 122.971 15.5008 155.458 5.18637 189.536C-5.13788 223.647 0.790954 259.173 22.6607 291.473C66.3425 355.989 173.496 407.561 341.974 410.5L342.026 407.5Z" fill="#FF6600"/>
<path d="M102.688 339.391C102.547 340.594 102.102 341.523 101.352 342.18C100.607 342.831 99.6146 343.156 98.375 343.156C97.0312 343.156 95.9531 342.674 95.1406 341.711C94.3333 340.747 93.9297 339.458 93.9297 337.844V336.75C93.9297 335.693 94.1172 334.763 94.4922 333.961C94.8724 333.159 95.4089 332.544 96.1016 332.117C96.7943 331.685 97.5964 331.469 98.5078 331.469C99.7161 331.469 100.685 331.807 101.414 332.484C102.143 333.156 102.568 334.089 102.688 335.281H101.18C101.049 334.375 100.766 333.719 100.328 333.312C99.8958 332.906 99.2891 332.703 98.5078 332.703C97.5495 332.703 96.7969 333.057 96.25 333.766C95.7083 334.474 95.4375 335.482 95.4375 336.789V337.891C95.4375 339.125 95.6953 340.107 96.2109 340.836C96.7266 341.565 97.4479 341.93 98.375 341.93C99.2083 341.93 99.8464 341.742 100.289 341.367C100.737 340.987 101.034 340.328 101.18 339.391H102.688ZM108.602 335.844C108.383 335.807 108.146 335.789 107.891 335.789C106.943 335.789 106.299 336.193 105.961 337V343H104.516V334.547H105.922L105.945 335.523C106.419 334.768 107.091 334.391 107.961 334.391C108.242 334.391 108.456 334.427 108.602 334.5V335.844ZM113.289 343.156C112.143 343.156 111.211 342.781 110.492 342.031C109.773 341.276 109.414 340.268 109.414 339.008V338.742C109.414 337.904 109.573 337.156 109.891 336.5C110.214 335.839 110.661 335.323 111.234 334.953C111.812 334.578 112.438 334.391 113.109 334.391C114.208 334.391 115.062 334.753 115.672 335.477C116.281 336.201 116.586 337.237 116.586 338.586V339.188H110.859C110.88 340.021 111.122 340.695 111.586 341.211C112.055 341.721 112.648 341.977 113.367 341.977C113.878 341.977 114.31 341.872 114.664 341.664C115.018 341.456 115.328 341.18 115.594 340.836L116.477 341.523C115.768 342.612 114.706 343.156 113.289 343.156ZM113.109 335.578C112.526 335.578 112.036 335.792 111.641 336.219C111.245 336.641 111 337.234 110.906 338H115.141V337.891C115.099 337.156 114.901 336.589 114.547 336.188C114.193 335.781 113.714 335.578 113.109 335.578ZM123.484 343C123.401 342.833 123.333 342.536 123.281 342.109C122.609 342.807 121.807 343.156 120.875 343.156C120.042 343.156 119.357 342.922 118.82 342.453C118.289 341.979 118.023 341.38 118.023 340.656C118.023 339.776 118.357 339.094 119.023 338.609C119.695 338.12 120.638 337.875 121.852 337.875H123.258V337.211C123.258 336.706 123.107 336.305 122.805 336.008C122.503 335.706 122.057 335.555 121.469 335.555C120.953 335.555 120.521 335.685 120.172 335.945C119.823 336.206 119.648 336.521 119.648 336.891H118.195C118.195 336.469 118.344 336.062 118.641 335.672C118.943 335.276 119.349 334.964 119.859 334.734C120.375 334.505 120.94 334.391 121.555 334.391C122.529 334.391 123.292 334.635 123.844 335.125C124.396 335.609 124.682 336.279 124.703 337.133V341.023C124.703 341.799 124.802 342.417 125 342.875V343H123.484ZM121.086 341.898C121.539 341.898 121.969 341.781 122.375 341.547C122.781 341.312 123.076 341.008 123.258 340.633V338.898H122.125C120.354 338.898 119.469 339.417 119.469 340.453C119.469 340.906 119.62 341.26 119.922 341.516C120.224 341.771 120.612 341.898 121.086 341.898ZM128.93 332.5V334.547H130.508V335.664H128.93V340.906C128.93 341.245 129 341.5 129.141 341.672C129.281 341.839 129.521 341.922 129.859 341.922C130.026 341.922 130.255 341.891 130.547 341.828V343C130.167 343.104 129.797 343.156 129.438 343.156C128.792 343.156 128.305 342.961 127.977 342.57C127.648 342.18 127.484 341.625 127.484 340.906V335.664H125.945V334.547H127.484V332.5H128.93ZM135.711 343.156C134.565 343.156 133.633 342.781 132.914 342.031C132.195 341.276 131.836 340.268 131.836 339.008V338.742C131.836 337.904 131.995 337.156 132.312 336.5C132.635 335.839 133.083 335.323 133.656 334.953C134.234 334.578 134.859 334.391 135.531 334.391C136.63 334.391 137.484 334.753 138.094 335.477C138.703 336.201 139.008 337.237 139.008 338.586V339.188H133.281C133.302 340.021 133.544 340.695 134.008 341.211C134.477 341.721 135.07 341.977 135.789 341.977C136.299 341.977 136.732 341.872 137.086 341.664C137.44 341.456 137.75 341.18 138.016 340.836L138.898 341.523C138.19 342.612 137.128 343.156 135.711 343.156ZM135.531 335.578C134.948 335.578 134.458 335.792 134.062 336.219C133.667 336.641 133.422 337.234 133.328 338H137.562V337.891C137.521 337.156 137.323 336.589 136.969 336.188C136.615 335.781 136.135 335.578 135.531 335.578ZM152.43 332.859H148.773V343H147.281V332.859H143.633V331.625H152.43V332.859ZM158.219 343C158.135 342.833 158.068 342.536 158.016 342.109C157.344 342.807 156.542 343.156 155.609 343.156C154.776 343.156 154.091 342.922 153.555 342.453C153.023 341.979 152.758 341.38 152.758 340.656C152.758 339.776 153.091 339.094 153.758 338.609C154.43 338.12 155.372 337.875 156.586 337.875H157.992V337.211C157.992 336.706 157.841 336.305 157.539 336.008C157.237 335.706 156.792 335.555 156.203 335.555C155.688 335.555 155.255 335.685 154.906 335.945C154.557 336.206 154.383 336.521 154.383 336.891H152.93C152.93 336.469 153.078 336.062 153.375 335.672C153.677 335.276 154.083 334.964 154.594 334.734C155.109 334.505 155.674 334.391 156.289 334.391C157.263 334.391 158.026 334.635 158.578 335.125C159.13 335.609 159.417 336.279 159.438 337.133V341.023C159.438 341.799 159.536 342.417 159.734 342.875V343H158.219ZM155.82 341.898C156.273 341.898 156.703 341.781 157.109 341.547C157.516 341.312 157.81 341.008 157.992 340.633V338.898H156.859C155.089 338.898 154.203 339.417 154.203 340.453C154.203 340.906 154.354 341.26 154.656 341.516C154.958 341.771 155.346 341.898 155.82 341.898ZM166.625 340.758C166.625 340.367 166.477 340.065 166.18 339.852C165.888 339.633 165.375 339.445 164.641 339.289C163.911 339.133 163.331 338.945 162.898 338.727C162.471 338.508 162.154 338.247 161.945 337.945C161.742 337.643 161.641 337.284 161.641 336.867C161.641 336.174 161.932 335.589 162.516 335.109C163.104 334.63 163.854 334.391 164.766 334.391C165.724 334.391 166.5 334.638 167.094 335.133C167.693 335.628 167.992 336.26 167.992 337.031H166.539C166.539 336.635 166.37 336.294 166.031 336.008C165.698 335.721 165.276 335.578 164.766 335.578C164.24 335.578 163.828 335.693 163.531 335.922C163.234 336.151 163.086 336.451 163.086 336.82C163.086 337.169 163.224 337.432 163.5 337.609C163.776 337.786 164.273 337.956 164.992 338.117C165.716 338.279 166.302 338.471 166.75 338.695C167.198 338.919 167.529 339.19 167.742 339.508C167.961 339.82 168.07 340.203 168.07 340.656C168.07 341.411 167.768 342.018 167.164 342.477C166.56 342.93 165.776 343.156 164.812 343.156C164.135 343.156 163.536 343.036 163.016 342.797C162.495 342.557 162.086 342.224 161.789 341.797C161.497 341.365 161.352 340.898 161.352 340.398H162.797C162.823 340.883 163.016 341.268 163.375 341.555C163.74 341.836 164.219 341.977 164.812 341.977C165.359 341.977 165.797 341.867 166.125 341.648C166.458 341.424 166.625 341.128 166.625 340.758ZM172.312 339.086L171.406 340.031V343H169.961V331H171.406V338.258L172.18 337.328L174.812 334.547H176.57L173.281 338.078L176.953 343H175.258L172.312 339.086Z" fill="black"/>
<defs>
<clipPath id="clip0">
<rect width="100" height="100" fill="white" transform="translate(345 345)"/>
</clipPath>
</defs>
</svg>
