<svg width="739" height="440" viewBox="0 0 739 440" fill="none" xmlns="http://www.w3.org/2000/svg">
<rect width="739" height="440" fill="white" fill-opacity="0.5"/>
<path d="M75 64C33.5812 64 0 74.4906 0 87.4375V106.188C0 119.134 33.5812 129.625 75 129.625C116.419 129.625 150 119.134 150 106.188V87.4375C150 74.4906 116.419 64 75 64Z" fill="black"/>
<path d="M75 143.688C33.5812 143.688 0 133.197 0 120.25V148.375C0 161.322 33.5812 171.812 75 171.812C116.419 171.812 150 161.322 150 148.375V120.25C150 133.197 116.419 143.688 75 143.688Z" fill="black"/>
<path d="M75 185.875C33.5812 185.875 0 175.384 0 162.438V190.562C0 203.509 33.5812 214 75 214C116.419 214 150 203.509 150 190.562V162.438C150 175.384 116.419 185.875 75 185.875Z" fill="black"/>
<path d="M95 146.75C95 143.103 96.4487 139.606 99.0273 137.027C101.606 134.449 105.103 133 108.75 133H191.25C194.897 133 198.394 134.449 200.973 137.027C203.551 139.606 205 143.103 205 146.75V229.25C205 232.897 203.551 236.394 200.973 238.973C198.394 241.551 194.897 243 191.25 243H108.75C105.103 243 101.606 241.551 99.0273 238.973C96.4487 236.394 95 232.897 95 229.25V146.75ZM198.125 160.5H170.625V181.125H198.125V160.5ZM198.125 188H170.625V208.625H198.125V188ZM198.125 215.5H170.625V236.125H191.25C193.073 236.125 194.822 235.401 196.111 234.111C197.401 232.822 198.125 231.073 198.125 229.25V215.5ZM163.75 236.125V215.5H136.25V236.125H163.75ZM129.375 236.125V215.5H101.875V229.25C101.875 231.073 102.599 232.822 103.889 234.111C105.178 235.401 106.927 236.125 108.75 236.125H129.375ZM101.875 208.625H129.375V188H101.875V208.625ZM101.875 181.125H129.375V160.5H101.875V181.125ZM136.25 160.5V181.125H163.75V160.5H136.25ZM163.75 188H136.25V208.625H163.75V188Z" fill="#5272E3"/>
<path d="M105.266 267H102.922L98.3594 259.516V267H96.0156V255.625H98.3594L102.93 263.125V255.625H105.266V267ZM106.812 262.695C106.812 261.857 106.974 261.109 107.297 260.453C107.62 259.797 108.083 259.289 108.688 258.93C109.297 258.57 110.003 258.391 110.805 258.391C111.945 258.391 112.875 258.74 113.594 259.438C114.318 260.135 114.721 261.083 114.805 262.281L114.82 262.859C114.82 264.156 114.458 265.198 113.734 265.984C113.01 266.766 112.039 267.156 110.82 267.156C109.602 267.156 108.628 266.766 107.898 265.984C107.174 265.203 106.812 264.141 106.812 262.797V262.695ZM109.07 262.859C109.07 263.661 109.221 264.276 109.523 264.703C109.826 265.125 110.258 265.336 110.82 265.336C111.367 265.336 111.794 265.128 112.102 264.711C112.409 264.289 112.562 263.617 112.562 262.695C112.562 261.909 112.409 261.299 112.102 260.867C111.794 260.435 111.362 260.219 110.805 260.219C110.253 260.219 109.826 260.435 109.523 260.867C109.221 261.294 109.07 261.958 109.07 262.859ZM115.859 262.711C115.859 261.393 116.154 260.344 116.742 259.562C117.336 258.781 118.146 258.391 119.172 258.391C119.995 258.391 120.674 258.698 121.211 259.312V255H123.477V267H121.438L121.328 266.102C120.766 266.805 120.042 267.156 119.156 267.156C118.161 267.156 117.362 266.766 116.758 265.984C116.159 265.198 115.859 264.107 115.859 262.711ZM118.117 262.875C118.117 263.667 118.255 264.273 118.531 264.695C118.807 265.117 119.208 265.328 119.734 265.328C120.432 265.328 120.924 265.034 121.211 264.445V261.109C120.93 260.521 120.443 260.227 119.75 260.227C118.661 260.227 118.117 261.109 118.117 262.875ZM129.117 267.156C127.878 267.156 126.867 266.776 126.086 266.016C125.31 265.255 124.922 264.242 124.922 262.977V262.758C124.922 261.909 125.086 261.151 125.414 260.484C125.742 259.812 126.206 259.297 126.805 258.938C127.409 258.573 128.096 258.391 128.867 258.391C130.023 258.391 130.932 258.755 131.594 259.484C132.26 260.214 132.594 261.247 132.594 262.586V263.508H127.211C127.284 264.06 127.503 264.503 127.867 264.836C128.237 265.169 128.703 265.336 129.266 265.336C130.135 265.336 130.815 265.021 131.305 264.391L132.414 265.633C132.076 266.112 131.617 266.487 131.039 266.758C130.461 267.023 129.82 267.156 129.117 267.156ZM128.859 260.219C128.411 260.219 128.047 260.37 127.766 260.672C127.49 260.974 127.312 261.406 127.234 261.969H130.375V261.789C130.365 261.289 130.229 260.904 129.969 260.633C129.708 260.357 129.339 260.219 128.859 260.219ZM144.555 256.469V258.547H146V260.203H144.555V264.422C144.555 264.734 144.615 264.958 144.734 265.094C144.854 265.229 145.083 265.297 145.422 265.297C145.672 265.297 145.893 265.279 146.086 265.242V266.953C145.643 267.089 145.188 267.156 144.719 267.156C143.135 267.156 142.328 266.357 142.297 264.758V260.203H141.062V258.547H142.297V256.469H144.555ZM152.156 267C152.052 266.797 151.977 266.544 151.93 266.242C151.383 266.852 150.672 267.156 149.797 267.156C148.969 267.156 148.281 266.917 147.734 266.438C147.193 265.958 146.922 265.354 146.922 264.625C146.922 263.729 147.253 263.042 147.914 262.562C148.581 262.083 149.542 261.841 150.797 261.836H151.836V261.352C151.836 260.961 151.734 260.648 151.531 260.414C151.333 260.18 151.018 260.062 150.586 260.062C150.206 260.062 149.906 260.154 149.688 260.336C149.474 260.518 149.367 260.768 149.367 261.086H147.109C147.109 260.596 147.26 260.143 147.562 259.727C147.865 259.31 148.292 258.984 148.844 258.75C149.396 258.51 150.016 258.391 150.703 258.391C151.745 258.391 152.57 258.654 153.18 259.18C153.794 259.701 154.102 260.435 154.102 261.383V265.047C154.107 265.849 154.219 266.456 154.438 266.867V267H152.156ZM150.289 265.43C150.622 265.43 150.93 265.357 151.211 265.211C151.492 265.06 151.701 264.859 151.836 264.609V263.156H150.992C149.862 263.156 149.26 263.547 149.188 264.328L149.18 264.461C149.18 264.742 149.279 264.974 149.477 265.156C149.674 265.339 149.945 265.43 150.289 265.43ZM163.453 262.852C163.453 264.206 163.164 265.263 162.586 266.023C162.008 266.779 161.201 267.156 160.164 267.156C159.247 267.156 158.516 266.805 157.969 266.102L157.867 267H155.836V255H158.094V259.305C158.615 258.695 159.299 258.391 160.148 258.391C161.18 258.391 161.987 258.771 162.57 259.531C163.159 260.286 163.453 261.352 163.453 262.727V262.852ZM161.195 262.688C161.195 261.833 161.06 261.211 160.789 260.82C160.518 260.424 160.115 260.227 159.578 260.227C158.859 260.227 158.365 260.521 158.094 261.109V264.445C158.37 265.039 158.87 265.336 159.594 265.336C160.323 265.336 160.802 264.977 161.031 264.258C161.141 263.914 161.195 263.391 161.195 262.688ZM167.234 267H164.969V255H167.234V267ZM172.992 267.156C171.753 267.156 170.742 266.776 169.961 266.016C169.185 265.255 168.797 264.242 168.797 262.977V262.758C168.797 261.909 168.961 261.151 169.289 260.484C169.617 259.812 170.081 259.297 170.68 258.938C171.284 258.573 171.971 258.391 172.742 258.391C173.898 258.391 174.807 258.755 175.469 259.484C176.135 260.214 176.469 261.247 176.469 262.586V263.508H171.086C171.159 264.06 171.378 264.503 171.742 264.836C172.112 265.169 172.578 265.336 173.141 265.336C174.01 265.336 174.69 265.021 175.18 264.391L176.289 265.633C175.951 266.112 175.492 266.487 174.914 266.758C174.336 267.023 173.695 267.156 172.992 267.156ZM172.734 260.219C172.286 260.219 171.922 260.37 171.641 260.672C171.365 260.974 171.188 261.406 171.109 261.969H174.25V261.789C174.24 261.289 174.104 260.904 173.844 260.633C173.583 260.357 173.214 260.219 172.734 260.219Z" fill="#5272E3"/>
<path d="M732.985 174.022H684.99C684.199 174.027 683.415 173.875 682.683 173.574C681.951 173.274 681.286 172.831 680.727 172.271C680.167 171.712 679.725 171.047 679.424 170.315C679.124 169.584 678.972 168.799 678.977 168.008V120.014C678.977 119.226 678.821 118.446 678.518 117.718C678.216 116.991 677.772 116.33 677.213 115.775C676.654 115.219 675.991 114.78 675.262 114.482C674.532 114.184 673.751 114.033 672.963 114.038H654.998C654.21 114.033 653.429 114.183 652.7 114.482C651.97 114.78 651.307 115.219 650.748 115.775C650.189 116.33 649.745 116.991 649.443 117.718C649.14 118.446 648.984 119.226 648.984 120.014V168.008C648.989 168.799 648.837 169.584 648.537 170.315C648.236 171.047 647.793 171.712 647.234 172.271C646.675 172.831 646.01 173.274 645.278 173.574C644.546 173.875 643.762 174.027 642.971 174.022H625.006C624.215 174.027 623.431 173.875 622.699 173.574C621.967 173.274 621.302 172.831 620.743 172.271C620.183 171.712 619.74 171.047 619.44 170.315C619.14 169.584 618.987 168.799 618.992 168.008V120.014C618.998 119.223 618.845 118.439 618.545 117.707C618.245 116.975 617.802 116.31 617.242 115.751C616.683 115.191 616.018 114.748 615.286 114.448C614.554 114.147 613.77 113.995 612.979 114H594.976C594.188 114 593.408 114.156 592.681 114.459C591.953 114.761 591.293 115.205 590.737 115.764C590.182 116.323 589.742 116.986 589.444 117.715C589.146 118.445 588.995 119.226 589 120.014V258.022C588.995 258.813 589.147 259.597 589.448 260.329C589.748 261.061 590.191 261.726 590.75 262.285C591.31 262.845 591.975 263.287 592.707 263.588C593.438 263.888 594.223 264.041 595.014 264.036H732.984C733.775 264.041 734.559 263.888 735.291 263.588C736.023 263.288 736.688 262.845 737.248 262.285C737.807 261.726 738.25 261.061 738.55 260.329C738.851 259.597 739.003 258.813 738.998 258.022V180.148C739.018 179.348 738.877 178.551 738.584 177.806C738.29 177.061 737.85 176.383 737.289 175.811C736.728 175.24 736.058 174.787 735.318 174.48C734.579 174.172 733.785 174.016 732.985 174.022ZM708.856 224.986C708.861 226.169 708.632 227.341 708.183 228.435C707.733 229.529 707.073 230.523 706.238 231.361C705.403 232.2 704.412 232.865 703.319 233.318C702.227 233.772 701.056 234.006 699.873 234.006H687.846C686.664 234.006 685.493 233.772 684.4 233.318C683.308 232.865 682.316 232.2 681.482 231.362C680.647 230.524 679.986 229.529 679.537 228.435C679.088 227.341 678.859 226.169 678.864 224.986V212.996C678.859 211.814 679.088 210.642 679.537 209.548C679.986 208.454 680.647 207.459 681.482 206.621C682.316 205.783 683.308 205.118 684.4 204.664C685.493 204.21 686.664 203.977 687.846 203.977H699.873C701.056 203.977 702.227 204.21 703.319 204.664C704.411 205.118 705.403 205.783 706.238 206.621C707.072 207.459 707.733 208.453 708.182 209.548C708.631 210.642 708.86 211.814 708.855 212.996V224.986H708.856Z" fill="#FF6600"/>
<g clip-path="url(#clip0)">
<path d="M415.591 417.906C420.079 412.507 423.2 406.105 424.691 399.244C426.181 392.383 425.998 385.264 424.155 378.489C422.313 371.714 418.865 365.482 414.105 360.321C409.345 355.16 403.412 351.221 396.807 348.838C390.203 346.455 383.121 345.698 376.162 346.63C369.203 347.563 362.571 350.158 356.827 354.195C351.083 358.233 346.396 363.595 343.162 369.827C339.929 376.059 338.244 382.979 338.25 390C338.252 400.207 341.849 410.087 348.409 417.906L348.347 417.959C348.566 418.222 348.816 418.447 349.041 418.706C349.322 419.028 349.625 419.331 349.916 419.644C350.791 420.594 351.691 421.506 352.634 422.362C352.922 422.625 353.219 422.869 353.509 423.119C354.509 423.981 355.538 424.8 356.603 425.562C356.741 425.656 356.866 425.778 357.003 425.875V425.837C364.322 430.988 373.053 433.752 382.003 433.752C390.953 433.752 399.684 430.988 407.003 425.837V425.875C407.141 425.778 407.262 425.656 407.403 425.562C408.466 424.797 409.497 423.981 410.497 423.119C410.787 422.869 411.084 422.622 411.372 422.362C412.316 421.503 413.216 420.594 414.091 419.644C414.381 419.331 414.681 419.028 414.966 418.706C415.187 418.447 415.441 418.222 415.659 417.956L415.591 417.906ZM382 365C384.781 365 387.5 365.825 389.813 367.37C392.125 368.915 393.928 371.111 394.992 373.681C396.056 376.251 396.335 379.078 395.792 381.806C395.25 384.534 393.91 387.039 391.944 389.006C389.977 390.973 387.471 392.312 384.743 392.855C382.016 393.397 379.188 393.119 376.619 392.055C374.049 390.99 371.853 389.188 370.307 386.875C368.762 384.563 367.938 381.844 367.938 379.062C367.938 375.333 369.419 371.756 372.056 369.119C374.694 366.482 378.27 365 382 365V365ZM357.022 417.906C357.076 413.803 358.744 409.886 361.664 407.003C364.584 404.12 368.521 402.502 372.625 402.5H391.375C395.479 402.502 399.416 404.12 402.336 407.003C405.256 409.886 406.924 413.803 406.978 417.906C400.125 424.082 391.226 427.5 382 427.5C372.774 427.5 363.875 424.082 357.022 417.906V417.906Z" fill="black"/>
<path d="M44.7362 199.523C43.9207 199.669 43.3777 200.448 43.5234 201.264L45.8975 214.553C46.0432 215.369 46.8224 215.912 47.6379 215.766C48.4534 215.621 48.9964 214.841 48.8507 214.026L46.7404 202.213L58.5534 200.103C59.3689 199.957 59.9119 199.178 59.7662 198.362C59.6205 197.547 58.8413 197.004 58.0258 197.149L44.7362 199.523ZM332.858 399.769L45.8576 199.769L44.1424 202.231L331.142 402.231L332.858 399.769Z" fill="black"/>
</g>
<rect x="313" width="138" height="279" fill="#F8A0A0" fill-opacity="0.3"/>
<path d="M389.802 116.846C388.19 115.533 385.097 114.875 382 114.875C378.904 114.875 375.812 115.532 374.2 116.845V136.917H389.803V116.846H389.802Z" fill="black"/>
<path d="M406.735 138.851L407.234 139.117C406.741 129.479 402.365 121.74 391.316 119.066L391.317 135.306C397.732 135.94 403.166 137.202 406.735 138.851" fill="black"/>
<path d="M372.684 135.306L372.686 119.066C361.635 121.74 357.259 129.479 356.766 139.118L357.265 138.852C360.835 137.202 366.269 135.94 372.684 135.306" fill="black"/>
<path d="M406.375 146.268V143H410.125C410.125 141.739 409.157 140.548 407.469 139.474C405.272 138.936 398.913 137.482 391.317 136.724V138.334H372.684V136.724C365.086 137.482 358.723 138.935 356.53 139.476C354.842 140.548 353.875 141.739 353.875 143H357.625V146.268C356.215 146.931 354.812 148.428 354.812 151.438C354.812 155.17 356.971 156.599 358.623 156.962C359.754 164.827 376.454 171.125 382 171.125C387.546 171.125 404.246 164.827 405.378 156.962C407.029 156.599 409.188 155.17 409.188 151.438C409.188 148.428 407.785 146.931 406.375 146.268ZM404.5 155.188H403.562V156.125C403.562 162.722 387.708 169.25 382 169.25C376.292 169.25 360.438 162.722 360.438 156.125V155.188H359.5C359.386 155.188 356.688 155.144 356.688 151.438C356.688 147.843 359.22 147.693 359.5 147.688H360.438V143H403.562V147.688H404.5C404.614 147.688 407.312 147.731 407.312 151.438C407.312 155.032 404.78 155.182 404.5 155.188Z" fill="black"/>
<path d="M375.438 149.148C375.438 148.631 375.332 148.142 375.161 147.684C376.127 148.384 376.904 149.326 377.312 150.552C377.312 143.054 364.188 143.054 364.188 149.617C364.799 148.087 366.214 147.067 367.903 146.568C367.321 147.302 367.003 148.211 367 149.148C367 150.267 367.444 151.34 368.236 152.131C369.027 152.922 370.1 153.367 371.219 153.367C372.338 153.367 373.411 152.922 374.202 152.131C374.993 151.34 375.438 150.267 375.438 149.148" fill="black"/>
<path d="M386.688 150.552C387.096 149.326 387.873 148.384 388.839 147.684C388.66 148.151 388.566 148.647 388.562 149.148C388.562 150.267 389.007 151.34 389.798 152.131C390.589 152.922 391.662 153.367 392.781 153.367C393.9 153.367 394.973 152.922 395.764 152.131C396.556 151.34 397 150.267 397 149.148C396.997 148.211 396.679 147.303 396.097 146.568C397.786 147.067 399.201 148.087 399.812 149.617C399.812 143.054 386.688 143.054 386.688 150.552Z" fill="black"/>
<path d="M389.594 159.601H374.407C373.563 159.601 373.563 160.405 373.563 160.405C373.563 163.62 377.782 165.226 382.001 165.226C386.22 165.226 390.438 163.62 390.438 160.405C390.437 160.405 390.437 159.601 389.594 159.601Z" fill="black"/>
<path d="M389.802 210.846C388.19 209.533 385.097 208.875 382 208.875C378.904 208.875 375.812 209.532 374.2 210.845V230.917H389.803V210.846H389.802Z" fill="black"/>
<path d="M406.735 232.851L407.234 233.117C406.741 223.479 402.365 215.74 391.316 213.066L391.317 229.306C397.732 229.94 403.166 231.202 406.735 232.851" fill="black"/>
<path d="M372.684 229.306L372.686 213.066C361.635 215.74 357.259 223.479 356.766 233.118L357.265 232.852C360.835 231.202 366.269 229.94 372.684 229.306" fill="black"/>
<path d="M406.375 240.268V237H410.125C410.125 235.739 409.157 234.548 407.469 233.474C405.272 232.936 398.913 231.482 391.317 230.724V232.334H372.684V230.724C365.086 231.482 358.723 232.935 356.53 233.476C354.842 234.548 353.875 235.739 353.875 237H357.625V240.268C356.215 240.931 354.812 242.428 354.812 245.438C354.812 249.17 356.971 250.599 358.623 250.962C359.754 258.827 376.454 265.125 382 265.125C387.546 265.125 404.246 258.827 405.378 250.962C407.029 250.599 409.188 249.17 409.188 245.438C409.188 242.428 407.785 240.931 406.375 240.268ZM404.5 249.188H403.562V250.125C403.562 256.722 387.708 263.25 382 263.25C376.292 263.25 360.438 256.722 360.438 250.125V249.188H359.5C359.386 249.188 356.688 249.144 356.688 245.438C356.688 241.843 359.22 241.693 359.5 241.688H360.438V237H403.562V241.688H404.5C404.614 241.688 407.312 241.731 407.312 245.438C407.312 249.032 404.78 249.182 404.5 249.188Z" fill="black"/>
<path d="M375.438 243.148C375.438 242.631 375.332 242.142 375.161 241.684C376.127 242.384 376.904 243.326 377.312 244.552C377.312 237.054 364.188 237.054 364.188 243.617C364.799 242.087 366.214 241.067 367.903 240.568C367.321 241.302 367.003 242.211 367 243.148C367 244.267 367.444 245.34 368.236 246.131C369.027 246.922 370.1 247.367 371.219 247.367C372.338 247.367 373.411 246.922 374.202 246.131C374.993 245.34 375.438 244.267 375.438 243.148" fill="black"/>
<path d="M386.688 244.552C387.096 243.326 387.873 242.384 388.839 241.684C388.66 242.151 388.566 242.647 388.562 243.148C388.562 244.267 389.007 245.34 389.798 246.131C390.589 246.922 391.662 247.367 392.781 247.367C393.9 247.367 394.973 246.922 395.764 246.131C396.556 245.34 397 244.267 397 243.148C396.997 242.211 396.679 241.303 396.097 240.568C397.786 241.067 399.201 242.087 399.812 243.617C399.812 237.054 386.688 237.054 386.688 244.552Z" fill="black"/>
<path d="M389.594 253.601H374.407C373.563 253.601 373.563 254.405 373.563 254.405C373.563 257.62 377.782 259.226 382.001 259.226C386.22 259.226 390.438 257.62 390.438 254.405C390.437 254.405 390.437 253.601 389.594 253.601Z" fill="black"/>
<path d="M396.583 37.5C395.764 37.4896 394.95 37.6414 394.189 37.9468C393.428 38.2521 392.735 38.7049 392.15 39.2792C390.979 40.4718 390.326 42.0786 390.333 43.75C390.33 44.5634 390.489 45.3693 390.801 46.1205C391.113 46.8717 391.571 47.5532 392.15 48.125C393.321 49.3126 394.916 49.9869 396.583 50C397.405 49.9937 398.218 49.8247 398.975 49.5029C399.731 49.1811 400.417 48.7128 400.992 48.125C401.574 47.5544 402.036 46.8738 402.352 46.1226C402.668 45.3715 402.832 44.565 402.833 43.75C402.832 42.0755 402.17 40.469 400.992 39.2792C400.412 38.7049 399.723 38.2519 398.966 37.9464C398.21 37.641 397.399 37.4892 396.583 37.5V37.5Z" fill="black"/>
<path d="M367.417 37.5C365.972 37.5001 364.571 38.0012 363.454 38.918C362.338 39.8347 361.573 41.1104 361.291 42.5277C361.009 43.9449 361.228 45.4161 361.909 46.6904C362.59 47.9647 363.692 48.9635 365.027 49.5164C366.362 50.0693 367.848 50.1422 369.23 49.7226C370.613 49.3031 371.808 48.4171 372.61 47.2156C373.413 46.0141 373.774 44.5714 373.633 43.1333C373.491 41.6953 372.855 40.3509 371.833 39.3292C371.254 38.7486 370.565 38.2882 369.807 37.9744C369.049 37.6605 368.237 37.4993 367.417 37.5Z" fill="black"/>
<path d="M407 8.33334C407.909 11.2611 408.619 14.2471 409.125 17.2708C409.348 19.4423 409.232 21.6353 408.779 23.7708C405.292 20.2033 401.126 17.3686 396.528 15.4332C391.93 13.4979 386.991 12.5009 382.002 12.5009C377.013 12.5009 372.074 13.4979 367.476 15.4332C362.878 17.3686 358.712 20.2033 355.225 23.7708C354.792 21.6319 354.704 19.4377 354.963 17.2708C354.957 14.1759 355.653 11.1199 357 8.33334C352.803 11.3075 349.204 15.0464 346.392 19.3542C345.251 21.8539 344.617 24.5548 344.525 27.3009C344.434 30.047 344.887 32.784 345.858 35.3542C346.104 35.9999 346.382 36.6327 346.692 37.25L346.742 37.3333C344.69 42.9974 344.033 49.0723 344.827 55.0439C345.621 61.0156 347.841 66.7081 351.301 71.6398C354.76 76.5714 359.357 80.597 364.702 83.3759C370.047 86.1547 375.983 87.605 382.007 87.6039C388.031 87.6028 393.966 86.1505 399.31 83.3697C404.654 80.589 409.249 76.5618 412.707 71.6289C416.165 66.696 418.384 61.0027 419.175 55.0308C419.967 49.0588 419.308 42.9842 417.254 37.3208L417.296 37.25C417.606 36.6327 417.884 35.9999 418.129 35.3542C420.097 30.1718 419.941 24.4225 417.696 19.3542C414.876 15.0241 411.244 11.2815 407 8.33334V8.33334ZM382 79.1667C376.231 79.1667 370.592 77.4561 365.796 74.2512C360.999 71.0463 357.261 66.4911 355.054 61.1616C352.846 55.8321 352.268 49.9676 353.394 44.3099C354.519 38.6521 357.297 33.4551 361.376 29.3761C365.455 25.297 370.652 22.5192 376.31 21.3938C381.968 20.2684 387.832 20.846 393.162 23.0535C398.491 25.2611 403.046 28.9994 406.251 33.7959C409.456 38.5923 411.167 44.2314 411.167 50C411.158 57.7328 408.082 65.1463 402.614 70.6142C397.146 76.0821 389.733 79.1578 382 79.1667V79.1667Z" fill="black"/>
<path d="M361.167 58.3333C363.116 62.1623 366.104 65.3653 369.788 67.5759C373.472 69.7864 377.704 70.9153 382 70.8333C386.296 70.9153 390.528 69.7864 394.212 67.5759C397.896 65.3653 400.884 62.1623 402.833 58.3333H361.167Z" fill="black"/>
<rect x="313.5" y="0.5" width="137" height="278" stroke="#F8A0A0" stroke-opacity="0.3"/>
<path d="M383.061 293.939C382.475 293.354 381.525 293.354 380.939 293.939L371.393 303.485C370.808 304.071 370.808 305.021 371.393 305.607C371.979 306.192 372.929 306.192 373.515 305.607L382 297.121L390.485 305.607C391.071 306.192 392.021 306.192 392.607 305.607C393.192 305.021 393.192 304.071 392.607 303.485L383.061 293.939ZM383.5 339V295H380.5V339H383.5Z" fill="#FF0000"/>
<path d="M403.016 328.758C403.016 328.367 402.867 328.065 402.57 327.852C402.279 327.633 401.766 327.445 401.031 327.289C400.302 327.133 399.721 326.945 399.289 326.727C398.862 326.508 398.544 326.247 398.336 325.945C398.133 325.643 398.031 325.284 398.031 324.867C398.031 324.174 398.323 323.589 398.906 323.109C399.495 322.63 400.245 322.391 401.156 322.391C402.115 322.391 402.891 322.638 403.484 323.133C404.083 323.628 404.383 324.26 404.383 325.031H402.93C402.93 324.635 402.76 324.294 402.422 324.008C402.089 323.721 401.667 323.578 401.156 323.578C400.63 323.578 400.219 323.693 399.922 323.922C399.625 324.151 399.477 324.451 399.477 324.82C399.477 325.169 399.615 325.432 399.891 325.609C400.167 325.786 400.664 325.956 401.383 326.117C402.107 326.279 402.693 326.471 403.141 326.695C403.589 326.919 403.919 327.19 404.133 327.508C404.352 327.82 404.461 328.203 404.461 328.656C404.461 329.411 404.159 330.018 403.555 330.477C402.951 330.93 402.167 331.156 401.203 331.156C400.526 331.156 399.927 331.036 399.406 330.797C398.885 330.557 398.477 330.224 398.18 329.797C397.888 329.365 397.742 328.898 397.742 328.398H399.188C399.214 328.883 399.406 329.268 399.766 329.555C400.13 329.836 400.609 329.977 401.203 329.977C401.75 329.977 402.188 329.867 402.516 329.648C402.849 329.424 403.016 329.128 403.016 328.758ZM408.305 320.5V322.547H409.883V323.664H408.305V328.906C408.305 329.245 408.375 329.5 408.516 329.672C408.656 329.839 408.896 329.922 409.234 329.922C409.401 329.922 409.63 329.891 409.922 329.828V331C409.542 331.104 409.172 331.156 408.812 331.156C408.167 331.156 407.68 330.961 407.352 330.57C407.023 330.18 406.859 329.625 406.859 328.906V323.664H405.32V322.547H406.859V320.5H408.305ZM416.797 331C416.714 330.833 416.646 330.536 416.594 330.109C415.922 330.807 415.12 331.156 414.188 331.156C413.354 331.156 412.669 330.922 412.133 330.453C411.602 329.979 411.336 329.38 411.336 328.656C411.336 327.776 411.669 327.094 412.336 326.609C413.008 326.12 413.951 325.875 415.164 325.875H416.57V325.211C416.57 324.706 416.419 324.305 416.117 324.008C415.815 323.706 415.37 323.555 414.781 323.555C414.266 323.555 413.833 323.685 413.484 323.945C413.135 324.206 412.961 324.521 412.961 324.891H411.508C411.508 324.469 411.656 324.062 411.953 323.672C412.255 323.276 412.661 322.964 413.172 322.734C413.688 322.505 414.253 322.391 414.867 322.391C415.841 322.391 416.604 322.635 417.156 323.125C417.708 323.609 417.995 324.279 418.016 325.133V329.023C418.016 329.799 418.115 330.417 418.312 330.875V331H416.797ZM414.398 329.898C414.852 329.898 415.281 329.781 415.688 329.547C416.094 329.312 416.388 329.008 416.57 328.633V326.898H415.438C413.667 326.898 412.781 327.417 412.781 328.453C412.781 328.906 412.932 329.26 413.234 329.516C413.536 329.771 413.924 329.898 414.398 329.898ZM424.367 323.844C424.148 323.807 423.911 323.789 423.656 323.789C422.708 323.789 422.065 324.193 421.727 325V331H420.281V322.547H421.688L421.711 323.523C422.185 322.768 422.857 322.391 423.727 322.391C424.008 322.391 424.221 322.427 424.367 322.5V323.844ZM428.055 320.5V322.547H429.633V323.664H428.055V328.906C428.055 329.245 428.125 329.5 428.266 329.672C428.406 329.839 428.646 329.922 428.984 329.922C429.151 329.922 429.38 329.891 429.672 329.828V331C429.292 331.104 428.922 331.156 428.562 331.156C427.917 331.156 427.43 330.961 427.102 330.57C426.773 330.18 426.609 329.625 426.609 328.906V323.664H425.07V322.547H426.609V320.5H428.055ZM431.617 331.977H430.375L435.125 319.625H436.359L431.617 331.977ZM442.844 328.758C442.844 328.367 442.695 328.065 442.398 327.852C442.107 327.633 441.594 327.445 440.859 327.289C440.13 327.133 439.549 326.945 439.117 326.727C438.69 326.508 438.372 326.247 438.164 325.945C437.961 325.643 437.859 325.284 437.859 324.867C437.859 324.174 438.151 323.589 438.734 323.109C439.323 322.63 440.073 322.391 440.984 322.391C441.943 322.391 442.719 322.638 443.312 323.133C443.911 323.628 444.211 324.26 444.211 325.031H442.758C442.758 324.635 442.589 324.294 442.25 324.008C441.917 323.721 441.495 323.578 440.984 323.578C440.458 323.578 440.047 323.693 439.75 323.922C439.453 324.151 439.305 324.451 439.305 324.82C439.305 325.169 439.443 325.432 439.719 325.609C439.995 325.786 440.492 325.956 441.211 326.117C441.935 326.279 442.521 326.471 442.969 326.695C443.417 326.919 443.747 327.19 443.961 327.508C444.18 327.82 444.289 328.203 444.289 328.656C444.289 329.411 443.987 330.018 443.383 330.477C442.779 330.93 441.995 331.156 441.031 331.156C440.354 331.156 439.755 331.036 439.234 330.797C438.714 330.557 438.305 330.224 438.008 329.797C437.716 329.365 437.57 328.898 437.57 328.398H439.016C439.042 328.883 439.234 329.268 439.594 329.555C439.958 329.836 440.438 329.977 441.031 329.977C441.578 329.977 442.016 329.867 442.344 329.648C442.677 329.424 442.844 329.128 442.844 328.758ZM448.133 320.5V322.547H449.711V323.664H448.133V328.906C448.133 329.245 448.203 329.5 448.344 329.672C448.484 329.839 448.724 329.922 449.062 329.922C449.229 329.922 449.458 329.891 449.75 329.828V331C449.37 331.104 449 331.156 448.641 331.156C447.995 331.156 447.508 330.961 447.18 330.57C446.852 330.18 446.688 329.625 446.688 328.906V323.664H445.148V322.547H446.688V320.5H448.133ZM450.867 326.695C450.867 325.867 451.029 325.122 451.352 324.461C451.68 323.799 452.133 323.289 452.711 322.93C453.294 322.57 453.958 322.391 454.703 322.391C455.854 322.391 456.784 322.789 457.492 323.586C458.206 324.383 458.562 325.443 458.562 326.766V326.867C458.562 327.69 458.404 328.43 458.086 329.086C457.773 329.737 457.323 330.245 456.734 330.609C456.151 330.974 455.479 331.156 454.719 331.156C453.573 331.156 452.643 330.758 451.93 329.961C451.221 329.164 450.867 328.109 450.867 326.797V326.695ZM452.32 326.867C452.32 327.805 452.536 328.557 452.969 329.125C453.406 329.693 453.99 329.977 454.719 329.977C455.453 329.977 456.036 329.69 456.469 329.117C456.901 328.539 457.117 327.732 457.117 326.695C457.117 325.768 456.896 325.018 456.453 324.445C456.016 323.867 455.432 323.578 454.703 323.578C453.99 323.578 453.414 323.862 452.977 324.43C452.539 324.997 452.32 325.81 452.32 326.867ZM467.516 326.867C467.516 328.154 467.221 329.19 466.633 329.977C466.044 330.763 465.247 331.156 464.242 331.156C463.216 331.156 462.409 330.831 461.82 330.18V334.25H460.375V322.547H461.695L461.766 323.484C462.354 322.755 463.172 322.391 464.219 322.391C465.234 322.391 466.036 322.773 466.625 323.539C467.219 324.305 467.516 325.37 467.516 326.734V326.867ZM466.07 326.703C466.07 325.75 465.867 324.997 465.461 324.445C465.055 323.893 464.497 323.617 463.789 323.617C462.914 323.617 462.258 324.005 461.82 324.781V328.82C462.253 329.591 462.914 329.977 463.805 329.977C464.497 329.977 465.047 329.703 465.453 329.156C465.865 328.604 466.07 327.786 466.07 326.703Z" fill="black"/>
<path d="M421.939 143.939C421.354 144.525 421.354 145.475 421.939 146.061L431.485 155.607C432.071 156.192 433.021 156.192 433.607 155.607C434.192 155.021 434.192 154.071 433.607 153.485L425.121 145L433.607 136.515C434.192 135.929 434.192 134.979 433.607 134.393C433.021 133.808 432.071 133.808 431.485 134.393L421.939 143.939ZM582.061 146.061C582.646 145.475 582.646 144.525 582.061 143.939L572.515 134.393C571.929 133.808 570.979 133.808 570.393 134.393C569.808 134.979 569.808 135.929 570.393 136.515L578.879 145L570.393 153.485C569.808 154.071 569.808 155.021 570.393 155.607C570.979 156.192 571.929 156.192 572.515 155.607L582.061 146.061ZM423 146.5H581V143.5H423V146.5Z" fill="black"/>
<path d="M421.939 233.939C421.354 234.525 421.354 235.475 421.939 236.061L431.485 245.607C432.071 246.192 433.021 246.192 433.607 245.607C434.192 245.021 434.192 244.071 433.607 243.485L425.121 235L433.607 226.515C434.192 225.929 434.192 224.979 433.607 224.393C433.021 223.808 432.071 223.808 431.485 224.393L421.939 233.939ZM582.061 236.061C582.646 235.475 582.646 234.525 582.061 233.939L572.515 224.393C571.929 223.808 570.979 223.808 570.393 224.393C569.808 224.979 569.808 225.929 570.393 226.515L578.879 235L570.393 243.485C569.808 244.071 569.808 245.021 570.393 245.607C570.979 246.192 571.929 246.192 572.515 245.607L582.061 236.061ZM423 236.5H581V233.5H423V236.5Z" fill="black"/>
<path d="M211.939 143.939C211.354 144.525 211.354 145.475 211.939 146.061L221.485 155.607C222.071 156.192 223.021 156.192 223.607 155.607C224.192 155.021 224.192 154.071 223.607 153.485L215.121 145L223.607 136.515C224.192 135.929 224.192 134.979 223.607 134.393C223.021 133.808 222.071 133.808 221.485 134.393L211.939 143.939ZM340.061 146.061C340.646 145.475 340.646 144.525 340.061 143.939L330.515 134.393C329.929 133.808 328.979 133.808 328.393 134.393C327.808 134.979 327.808 135.929 328.393 136.515L336.879 145L328.393 153.485C327.808 154.071 327.808 155.021 328.393 155.607C328.979 156.192 329.929 156.192 330.515 155.607L340.061 146.061ZM213 146.5L339 146.5V143.5L213 143.5V146.5Z" fill="black"/>
<path d="M211.939 233.939C211.354 234.525 211.354 235.475 211.939 236.061L221.485 245.607C222.071 246.192 223.021 246.192 223.607 245.607C224.192 245.021 224.192 244.071 223.607 243.485L215.121 235L223.607 226.515C224.192 225.929 224.192 224.979 223.607 224.393C223.021 223.808 222.071 223.808 221.485 224.393L211.939 233.939ZM340.061 236.061C340.646 235.475 340.646 234.525 340.061 233.939L330.515 224.393C329.929 223.808 328.979 223.808 328.393 224.393C327.808 224.979 327.808 225.929 328.393 226.515L336.879 235L328.393 243.485C327.808 244.071 327.808 245.021 328.393 245.607C328.979 246.192 329.929 246.192 330.515 245.607L340.061 236.061ZM213 236.5H339V233.5H213V236.5Z" fill="black"/>
<path d="M244.688 336.391C244.547 337.594 244.102 338.523 243.352 339.18C242.607 339.831 241.615 340.156 240.375 340.156C239.031 340.156 237.953 339.674 237.141 338.711C236.333 337.747 235.93 336.458 235.93 334.844V333.75C235.93 332.693 236.117 331.763 236.492 330.961C236.872 330.159 237.409 329.544 238.102 329.117C238.794 328.685 239.596 328.469 240.508 328.469C241.716 328.469 242.685 328.807 243.414 329.484C244.143 330.156 244.568 331.089 244.688 332.281H243.18C243.049 331.375 242.766 330.719 242.328 330.312C241.896 329.906 241.289 329.703 240.508 329.703C239.549 329.703 238.797 330.057 238.25 330.766C237.708 331.474 237.438 332.482 237.438 333.789V334.891C237.438 336.125 237.695 337.107 238.211 337.836C238.727 338.565 239.448 338.93 240.375 338.93C241.208 338.93 241.846 338.742 242.289 338.367C242.737 337.987 243.034 337.328 243.18 336.391H244.688ZM250.602 332.844C250.383 332.807 250.146 332.789 249.891 332.789C248.943 332.789 248.299 333.193 247.961 334V340H246.516V331.547H247.922L247.945 332.523C248.419 331.768 249.091 331.391 249.961 331.391C250.242 331.391 250.456 331.427 250.602 331.5V332.844ZM255.289 340.156C254.143 340.156 253.211 339.781 252.492 339.031C251.773 338.276 251.414 337.268 251.414 336.008V335.742C251.414 334.904 251.573 334.156 251.891 333.5C252.214 332.839 252.661 332.323 253.234 331.953C253.812 331.578 254.438 331.391 255.109 331.391C256.208 331.391 257.062 331.753 257.672 332.477C258.281 333.201 258.586 334.237 258.586 335.586V336.188H252.859C252.88 337.021 253.122 337.695 253.586 338.211C254.055 338.721 254.648 338.977 255.367 338.977C255.878 338.977 256.31 338.872 256.664 338.664C257.018 338.456 257.328 338.18 257.594 337.836L258.477 338.523C257.768 339.612 256.706 340.156 255.289 340.156ZM255.109 332.578C254.526 332.578 254.036 332.792 253.641 333.219C253.245 333.641 253 334.234 252.906 335H257.141V334.891C257.099 334.156 256.901 333.589 256.547 333.188C256.193 332.781 255.714 332.578 255.109 332.578ZM265.484 340C265.401 339.833 265.333 339.536 265.281 339.109C264.609 339.807 263.807 340.156 262.875 340.156C262.042 340.156 261.357 339.922 260.82 339.453C260.289 338.979 260.023 338.38 260.023 337.656C260.023 336.776 260.357 336.094 261.023 335.609C261.695 335.12 262.638 334.875 263.852 334.875H265.258V334.211C265.258 333.706 265.107 333.305 264.805 333.008C264.503 332.706 264.057 332.555 263.469 332.555C262.953 332.555 262.521 332.685 262.172 332.945C261.823 333.206 261.648 333.521 261.648 333.891H260.195C260.195 333.469 260.344 333.062 260.641 332.672C260.943 332.276 261.349 331.964 261.859 331.734C262.375 331.505 262.94 331.391 263.555 331.391C264.529 331.391 265.292 331.635 265.844 332.125C266.396 332.609 266.682 333.279 266.703 334.133V338.023C266.703 338.799 266.802 339.417 267 339.875V340H265.484ZM263.086 338.898C263.539 338.898 263.969 338.781 264.375 338.547C264.781 338.312 265.076 338.008 265.258 337.633V335.898H264.125C262.354 335.898 261.469 336.417 261.469 337.453C261.469 337.906 261.62 338.26 261.922 338.516C262.224 338.771 262.612 338.898 263.086 338.898ZM270.93 329.5V331.547H272.508V332.664H270.93V337.906C270.93 338.245 271 338.5 271.141 338.672C271.281 338.839 271.521 338.922 271.859 338.922C272.026 338.922 272.255 338.891 272.547 338.828V340C272.167 340.104 271.797 340.156 271.438 340.156C270.792 340.156 270.305 339.961 269.977 339.57C269.648 339.18 269.484 338.625 269.484 337.906V332.664H267.945V331.547H269.484V329.5H270.93ZM277.711 340.156C276.565 340.156 275.633 339.781 274.914 339.031C274.195 338.276 273.836 337.268 273.836 336.008V335.742C273.836 334.904 273.995 334.156 274.312 333.5C274.635 332.839 275.083 332.323 275.656 331.953C276.234 331.578 276.859 331.391 277.531 331.391C278.63 331.391 279.484 331.753 280.094 332.477C280.703 333.201 281.008 334.237 281.008 335.586V336.188H275.281C275.302 337.021 275.544 337.695 276.008 338.211C276.477 338.721 277.07 338.977 277.789 338.977C278.299 338.977 278.732 338.872 279.086 338.664C279.44 338.456 279.75 338.18 280.016 337.836L280.898 338.523C280.19 339.612 279.128 340.156 277.711 340.156ZM277.531 332.578C276.948 332.578 276.458 332.792 276.062 333.219C275.667 333.641 275.422 334.234 275.328 335H279.562V334.891C279.521 334.156 279.323 333.589 278.969 333.188C278.615 332.781 278.135 332.578 277.531 332.578ZM295.625 340H294.117L288.391 331.234V340H286.883V328.625H288.391L294.133 337.43V328.625H295.625V340ZM297.68 335.695C297.68 334.867 297.841 334.122 298.164 333.461C298.492 332.799 298.945 332.289 299.523 331.93C300.107 331.57 300.771 331.391 301.516 331.391C302.667 331.391 303.596 331.789 304.305 332.586C305.018 333.383 305.375 334.443 305.375 335.766V335.867C305.375 336.69 305.216 337.43 304.898 338.086C304.586 338.737 304.135 339.245 303.547 339.609C302.964 339.974 302.292 340.156 301.531 340.156C300.385 340.156 299.456 339.758 298.742 338.961C298.034 338.164 297.68 337.109 297.68 335.797V335.695ZM299.133 335.867C299.133 336.805 299.349 337.557 299.781 338.125C300.219 338.693 300.802 338.977 301.531 338.977C302.266 338.977 302.849 338.69 303.281 338.117C303.714 337.539 303.93 336.732 303.93 335.695C303.93 334.768 303.708 334.018 303.266 333.445C302.828 332.867 302.245 332.578 301.516 332.578C300.802 332.578 300.227 332.862 299.789 333.43C299.352 333.997 299.133 334.81 299.133 335.867ZM306.836 335.703C306.836 334.406 307.143 333.365 307.758 332.578C308.372 331.786 309.177 331.391 310.172 331.391C311.161 331.391 311.945 331.729 312.523 332.406V328H313.969V340H312.641L312.57 339.094C311.992 339.802 311.188 340.156 310.156 340.156C309.177 340.156 308.378 339.755 307.758 338.953C307.143 338.151 306.836 337.104 306.836 335.812V335.703ZM308.281 335.867C308.281 336.826 308.479 337.576 308.875 338.117C309.271 338.659 309.818 338.93 310.516 338.93C311.432 338.93 312.102 338.518 312.523 337.695V333.812C312.091 333.016 311.427 332.617 310.531 332.617C309.823 332.617 309.271 332.891 308.875 333.438C308.479 333.984 308.281 334.794 308.281 335.867ZM319.727 340.156C318.581 340.156 317.648 339.781 316.93 339.031C316.211 338.276 315.852 337.268 315.852 336.008V335.742C315.852 334.904 316.01 334.156 316.328 333.5C316.651 332.839 317.099 332.323 317.672 331.953C318.25 331.578 318.875 331.391 319.547 331.391C320.646 331.391 321.5 331.753 322.109 332.477C322.719 333.201 323.023 334.237 323.023 335.586V336.188H317.297C317.318 337.021 317.56 337.695 318.023 338.211C318.492 338.721 319.086 338.977 319.805 338.977C320.315 338.977 320.747 338.872 321.102 338.664C321.456 338.456 321.766 338.18 322.031 337.836L322.914 338.523C322.206 339.612 321.143 340.156 319.727 340.156ZM319.547 332.578C318.964 332.578 318.474 332.792 318.078 333.219C317.682 333.641 317.438 334.234 317.344 335H321.578V334.891C321.536 334.156 321.339 333.589 320.984 333.188C320.63 332.781 320.151 332.578 319.547 332.578Z" fill="black"/>
<path d="M195.844 252L190.046 268.321L207.079 265.182L195.844 252ZM196.812 265.531C201.744 293.938 204.593 317.976 221.787 338.586C238.985 359.202 270.332 376.201 331.638 391.456L332.362 388.544C271.203 373.327 240.653 356.517 224.091 336.664C207.524 316.806 204.751 293.717 199.768 265.018L196.812 265.531Z" fill="#5272E3"/>
<path d="M670.292 273L673.09 290.093L656.888 283.97L670.292 273ZM666.935 286.125C662.73 297.959 659.23 309.027 653.029 319.212C646.789 329.463 637.84 338.796 622.77 347.384C592.75 364.491 538.32 378.695 432.18 391.489L431.821 388.511C537.983 375.714 591.85 361.551 621.284 344.778C635.941 336.426 644.507 327.441 650.467 317.652C656.465 307.8 659.849 297.108 664.108 285.121L666.935 286.125Z" fill="#FF6600"/>
<path d="M531.688 341.391C531.547 342.594 531.102 343.523 530.352 344.18C529.607 344.831 528.615 345.156 527.375 345.156C526.031 345.156 524.953 344.674 524.141 343.711C523.333 342.747 522.93 341.458 522.93 339.844V338.75C522.93 337.693 523.117 336.763 523.492 335.961C523.872 335.159 524.409 334.544 525.102 334.117C525.794 333.685 526.596 333.469 527.508 333.469C528.716 333.469 529.685 333.807 530.414 334.484C531.143 335.156 531.568 336.089 531.688 337.281H530.18C530.049 336.375 529.766 335.719 529.328 335.312C528.896 334.906 528.289 334.703 527.508 334.703C526.549 334.703 525.797 335.057 525.25 335.766C524.708 336.474 524.438 337.482 524.438 338.789V339.891C524.438 341.125 524.695 342.107 525.211 342.836C525.727 343.565 526.448 343.93 527.375 343.93C528.208 343.93 528.846 343.742 529.289 343.367C529.737 342.987 530.034 342.328 530.18 341.391H531.688ZM537.602 337.844C537.383 337.807 537.146 337.789 536.891 337.789C535.943 337.789 535.299 338.193 534.961 339V345H533.516V336.547H534.922L534.945 337.523C535.419 336.768 536.091 336.391 536.961 336.391C537.242 336.391 537.456 336.427 537.602 336.5V337.844ZM542.289 345.156C541.143 345.156 540.211 344.781 539.492 344.031C538.773 343.276 538.414 342.268 538.414 341.008V340.742C538.414 339.904 538.573 339.156 538.891 338.5C539.214 337.839 539.661 337.323 540.234 336.953C540.812 336.578 541.438 336.391 542.109 336.391C543.208 336.391 544.062 336.753 544.672 337.477C545.281 338.201 545.586 339.237 545.586 340.586V341.188H539.859C539.88 342.021 540.122 342.695 540.586 343.211C541.055 343.721 541.648 343.977 542.367 343.977C542.878 343.977 543.31 343.872 543.664 343.664C544.018 343.456 544.328 343.18 544.594 342.836L545.477 343.523C544.768 344.612 543.706 345.156 542.289 345.156ZM542.109 337.578C541.526 337.578 541.036 337.792 540.641 338.219C540.245 338.641 540 339.234 539.906 340H544.141V339.891C544.099 339.156 543.901 338.589 543.547 338.188C543.193 337.781 542.714 337.578 542.109 337.578ZM552.484 345C552.401 344.833 552.333 344.536 552.281 344.109C551.609 344.807 550.807 345.156 549.875 345.156C549.042 345.156 548.357 344.922 547.82 344.453C547.289 343.979 547.023 343.38 547.023 342.656C547.023 341.776 547.357 341.094 548.023 340.609C548.695 340.12 549.638 339.875 550.852 339.875H552.258V339.211C552.258 338.706 552.107 338.305 551.805 338.008C551.503 337.706 551.057 337.555 550.469 337.555C549.953 337.555 549.521 337.685 549.172 337.945C548.823 338.206 548.648 338.521 548.648 338.891H547.195C547.195 338.469 547.344 338.062 547.641 337.672C547.943 337.276 548.349 336.964 548.859 336.734C549.375 336.505 549.94 336.391 550.555 336.391C551.529 336.391 552.292 336.635 552.844 337.125C553.396 337.609 553.682 338.279 553.703 339.133V343.023C553.703 343.799 553.802 344.417 554 344.875V345H552.484ZM550.086 343.898C550.539 343.898 550.969 343.781 551.375 343.547C551.781 343.312 552.076 343.008 552.258 342.633V340.898H551.125C549.354 340.898 548.469 341.417 548.469 342.453C548.469 342.906 548.62 343.26 548.922 343.516C549.224 343.771 549.612 343.898 550.086 343.898ZM557.93 334.5V336.547H559.508V337.664H557.93V342.906C557.93 343.245 558 343.5 558.141 343.672C558.281 343.839 558.521 343.922 558.859 343.922C559.026 343.922 559.255 343.891 559.547 343.828V345C559.167 345.104 558.797 345.156 558.438 345.156C557.792 345.156 557.305 344.961 556.977 344.57C556.648 344.18 556.484 343.625 556.484 342.906V337.664H554.945V336.547H556.484V334.5H557.93ZM564.711 345.156C563.565 345.156 562.633 344.781 561.914 344.031C561.195 343.276 560.836 342.268 560.836 341.008V340.742C560.836 339.904 560.995 339.156 561.312 338.5C561.635 337.839 562.083 337.323 562.656 336.953C563.234 336.578 563.859 336.391 564.531 336.391C565.63 336.391 566.484 336.753 567.094 337.477C567.703 338.201 568.008 339.237 568.008 340.586V341.188H562.281C562.302 342.021 562.544 342.695 563.008 343.211C563.477 343.721 564.07 343.977 564.789 343.977C565.299 343.977 565.732 343.872 566.086 343.664C566.44 343.456 566.75 343.18 567.016 342.836L567.898 343.523C567.19 344.612 566.128 345.156 564.711 345.156ZM564.531 337.578C563.948 337.578 563.458 337.792 563.062 338.219C562.667 338.641 562.422 339.234 562.328 340H566.562V339.891C566.521 339.156 566.323 338.589 565.969 338.188C565.615 337.781 565.135 337.578 564.531 337.578ZM581.43 334.859H577.773V345H576.281V334.859H572.633V333.625H581.43V334.859ZM587.219 345C587.135 344.833 587.068 344.536 587.016 344.109C586.344 344.807 585.542 345.156 584.609 345.156C583.776 345.156 583.091 344.922 582.555 344.453C582.023 343.979 581.758 343.38 581.758 342.656C581.758 341.776 582.091 341.094 582.758 340.609C583.43 340.12 584.372 339.875 585.586 339.875H586.992V339.211C586.992 338.706 586.841 338.305 586.539 338.008C586.237 337.706 585.792 337.555 585.203 337.555C584.688 337.555 584.255 337.685 583.906 337.945C583.557 338.206 583.383 338.521 583.383 338.891H581.93C581.93 338.469 582.078 338.062 582.375 337.672C582.677 337.276 583.083 336.964 583.594 336.734C584.109 336.505 584.674 336.391 585.289 336.391C586.263 336.391 587.026 336.635 587.578 337.125C588.13 337.609 588.417 338.279 588.438 339.133V343.023C588.438 343.799 588.536 344.417 588.734 344.875V345H587.219ZM584.82 343.898C585.273 343.898 585.703 343.781 586.109 343.547C586.516 343.312 586.81 343.008 586.992 342.633V340.898H585.859C584.089 340.898 583.203 341.417 583.203 342.453C583.203 342.906 583.354 343.26 583.656 343.516C583.958 343.771 584.346 343.898 584.82 343.898ZM595.625 342.758C595.625 342.367 595.477 342.065 595.18 341.852C594.888 341.633 594.375 341.445 593.641 341.289C592.911 341.133 592.331 340.945 591.898 340.727C591.471 340.508 591.154 340.247 590.945 339.945C590.742 339.643 590.641 339.284 590.641 338.867C590.641 338.174 590.932 337.589 591.516 337.109C592.104 336.63 592.854 336.391 593.766 336.391C594.724 336.391 595.5 336.638 596.094 337.133C596.693 337.628 596.992 338.26 596.992 339.031H595.539C595.539 338.635 595.37 338.294 595.031 338.008C594.698 337.721 594.276 337.578 593.766 337.578C593.24 337.578 592.828 337.693 592.531 337.922C592.234 338.151 592.086 338.451 592.086 338.82C592.086 339.169 592.224 339.432 592.5 339.609C592.776 339.786 593.273 339.956 593.992 340.117C594.716 340.279 595.302 340.471 595.75 340.695C596.198 340.919 596.529 341.19 596.742 341.508C596.961 341.82 597.07 342.203 597.07 342.656C597.07 343.411 596.768 344.018 596.164 344.477C595.56 344.93 594.776 345.156 593.812 345.156C593.135 345.156 592.536 345.036 592.016 344.797C591.495 344.557 591.086 344.224 590.789 343.797C590.497 343.365 590.352 342.898 590.352 342.398H591.797C591.823 342.883 592.016 343.268 592.375 343.555C592.74 343.836 593.219 343.977 593.812 343.977C594.359 343.977 594.797 343.867 595.125 343.648C595.458 343.424 595.625 343.128 595.625 342.758ZM601.312 341.086L600.406 342.031V345H598.961V333H600.406V340.258L601.18 339.328L603.812 336.547H605.57L602.281 340.078L605.953 345H604.258L601.312 341.086Z" fill="black"/>
<defs>
<clipPath id="clip0">
<rect width="100" height="100" fill="white" transform="translate(332 340)"/>
</clipPath>
</defs>
</svg>
